<svg width="1848" height="991" viewBox="0 0 1848 991" fill="none" xmlns="http://www.w3.org/2000/svg">
<path d="M2255.1 495.492C2255.1 889.298 1659.18 1208.54 924.077 1208.54M2255.1 495.492C2255.1 101.685 1659.18 -217.558 924.077 -217.558M2255.1 495.492H-406.949M924.077 1208.54C188.972 1208.54 -406.949 889.298 -406.949 495.492M924.077 1208.54V-217.558M-406.949 495.492C-406.949 101.685 188.972 -217.558 924.077 -217.558M924.077 -217.565C425.324 -157.687 46.4309 138.777 46.4308 495.484C46.4307 852.192 425.324 1148.66 924.077 1208.53M924.077 -217.565C283.499 -157.687 -203.137 138.777 -203.137 495.484C-203.137 852.192 283.498 1148.66 924.077 1208.53M924.077 -217.565C675.76 -122.293 495.652 160.921 495.652 495.485C495.652 830.048 675.76 1113.26 924.077 1208.53M924.077 -217.565C793.518 -62.411 707.785 199.067 707.785 495.485C707.785 791.903 793.518 1053.38 924.077 1208.53M924.077 -217.565C543.164 -122.293 266.882 160.921 266.882 495.484C266.882 830.048 543.164 1113.26 924.077 1208.53M924.078 1208.54C1422.83 1148.67 1801.72 852.203 1801.72 495.495C1801.72 138.787 1422.83 -157.676 924.079 -217.555M924.078 1208.54C1564.66 1148.67 2051.29 852.203 2051.29 495.495C2051.29 138.787 1564.66 -157.676 924.079 -217.555M924.078 1208.54C1172.4 1113.27 1352.5 830.059 1352.5 495.495C1352.5 160.931 1172.4 -122.283 924.079 -217.555M924.078 1208.54C1054.64 1053.39 1140.37 791.913 1140.37 495.495C1140.37 199.077 1054.64 -62.4005 924.079 -217.555M924.078 1208.54C1304.99 1113.27 1581.27 830.059 1581.27 495.495C1581.27 160.931 1304.99 -122.283 924.079 -217.555M-248.892 156.793C56.8774 250.714 469.739 308.316 924.075 308.316C1378.41 308.316 1791.27 250.714 2097.04 156.793M2192.71 277.12C1840.91 358.195 1401.16 406.36 924.077 406.36C446.994 406.36 7.2418 358.195 -344.558 277.12M-115.789 49.8354C162.149 151.128 525.922 212.5 924.076 212.5C1322.23 212.5 1686 151.128 1963.94 49.8354M212.808 -108.372C416.579 -26.708 661.119 20.868 924.075 20.868C1187.03 20.868 1431.57 -26.708 1635.34 -108.372M1200.68 -202.214C1113.57 -177.632 1020.6 -164.346 924.075 -164.346C827.544 -164.346 734.581 -177.632 647.471 -202.214M1801.72 -41.5242C1601.08 54.6358 1280.36 116.684 924.076 116.684C567.791 116.684 247.072 54.6358 46.4301 -41.5242M1431.53 -164.08C1293.72 -104.23 1116.9 -68.2637 924.075 -68.2637C731.251 -68.2637 554.429 -104.23 416.621 -164.08M2097.04 834.185C1791.28 740.265 1378.41 682.662 924.077 682.662C469.741 682.662 56.8789 740.265 -248.89 834.185M-344.559 713.858C7.24067 632.783 446.993 584.618 924.076 584.618C1401.16 584.618 1840.91 632.783 2192.71 713.858M1963.94 941.143C1686 839.851 1322.23 778.478 924.076 778.478C525.922 778.478 162.149 839.851 -115.789 941.143M1635.34 1099.35C1431.57 1017.69 1187.03 970.111 924.074 970.111C661.118 970.111 416.578 1017.69 212.807 1099.35M647.472 1193.19C734.583 1168.61 827.546 1155.32 924.076 1155.32C1020.61 1155.32 1113.57 1168.61 1200.68 1193.19M46.4308 1032.5C247.072 936.343 567.792 874.295 924.077 874.295C1280.36 874.295 1601.08 936.343 1801.72 1032.5M416.621 1155.06C554.428 1095.21 731.251 1059.24 924.075 1059.24C1116.9 1059.24 1293.72 1095.21 1431.53 1155.06" stroke="white"/>
</svg>
