<svg width="621" height="366" viewBox="0 0 621 366" fill="none" xmlns="http://www.w3.org/2000/svg">
<path d="M517 242H589V246H517V242Z" fill="black"/>
<path d="M513 250V246H517V250H513Z" fill="black"/>
<path d="M509 254V250H513V254H509Z" fill="black"/>
<path d="M505 258V254H509V258H505Z" fill="black"/>
<path d="M501 262V258H505V262H501Z" fill="black"/>
<path d="M497 266V262H501V266H497Z" fill="black"/>
<path d="M509 282H517V294H509V282Z" fill="black"/>
<path fill-rule="evenodd" clip-rule="evenodd" d="M609 266H613V278H617V286H621V310H497V306H493V266H497V274H609V266ZM497 302H609V278H497V302Z" fill="black"/>
<path d="M605 262H609V266H605V262Z" fill="black"/>
<path d="M601 258H605V262H601V258Z" fill="black"/>
<path d="M597 254H601V258H597V254Z" fill="black"/>
<path d="M593 250H597V254H593V250Z" fill="black"/>
<path d="M593 250V246H589V250H593Z" fill="black"/>
<path d="M517 246V250H513V254H509V258H505V262H501V266H497V274H609V266H605V262H601V258H597V254H593V250H589V246H517Z" fill="#FFFF50"/>
<path fill-rule="evenodd" clip-rule="evenodd" d="M497 278H609V302H497V278ZM517 294H509V282H517V294Z" fill="#FFFF50"/>
<path d="M504.695 361V347.04H513.515V349.2H507.315V352.84H513.295V355H507.315V358.84H513.515V361H504.695ZM526.747 361H523.787L522.267 358.22L521.047 355.78H520.887L519.627 358.22L518.067 361H515.307L519.407 353.8L515.567 347.04H518.547L519.827 349.4L521.047 351.82H521.187L522.427 349.4L523.767 347.04H526.527L522.667 353.84L526.747 361ZM534.32 349.2V361H531.72V349.2H527.52V347.04H538.52V349.2H534.32ZM543.232 361H540.612V347.04H545.912C547.272 347.04 548.312 347.427 549.032 348.2C549.752 348.973 550.112 350.027 550.112 351.36C550.112 352.387 549.872 353.253 549.392 353.96C548.925 354.653 548.252 355.093 547.372 355.28L550.352 361H547.472L544.812 355.58H543.232V361ZM545.372 353.54C546.078 353.54 546.585 353.4 546.892 353.12C547.198 352.827 547.352 352.367 547.352 351.74V350.98C547.352 350.353 547.198 349.9 546.892 349.62C546.585 349.327 546.078 349.18 545.372 349.18H543.232V353.54H545.372ZM557.004 361.24C556.097 361.24 555.311 361.08 554.644 360.76C553.977 360.427 553.424 359.953 552.984 359.34C552.557 358.727 552.237 357.973 552.024 357.08C551.824 356.187 551.724 355.167 551.724 354.02C551.724 352.887 551.824 351.873 552.024 350.98C552.237 350.073 552.557 349.313 552.984 348.7C553.424 348.087 553.977 347.62 554.644 347.3C555.311 346.967 556.097 346.8 557.004 346.8C558.817 346.8 560.151 347.433 561.004 348.7C561.857 349.967 562.284 351.74 562.284 354.02C562.284 356.3 561.857 358.073 561.004 359.34C560.151 360.607 558.817 361.24 557.004 361.24ZM557.004 359.1C557.471 359.1 557.864 359.013 558.184 358.84C558.504 358.653 558.757 358.393 558.944 358.06C559.144 357.727 559.284 357.32 559.364 356.84C559.457 356.347 559.504 355.8 559.504 355.2V352.82C559.504 351.62 559.317 350.673 558.944 349.98C558.584 349.287 557.937 348.94 557.004 348.94C556.071 348.94 555.417 349.287 555.044 349.98C554.684 350.673 554.504 351.62 554.504 352.82V355.22C554.504 356.42 554.684 357.367 555.044 358.06C555.417 358.753 556.071 359.1 557.004 359.1ZM567.156 361L563.336 347.04H566.216L567.956 354.1L568.976 358.5H569.116L570.156 354.1L571.916 347.04H574.656L570.836 361H567.156ZM576.648 361V347.04H585.468V349.2H579.268V352.84H585.248V355H579.268V358.84H585.468V361H576.648ZM591.2 361H588.58V347.04H593.88C595.24 347.04 596.28 347.427 597 348.2C597.72 348.973 598.08 350.027 598.08 351.36C598.08 352.387 597.84 353.253 597.36 353.96C596.894 354.653 596.22 355.093 595.34 355.28L598.32 361H595.44L592.78 355.58H591.2V361ZM593.34 353.54C594.047 353.54 594.554 353.4 594.86 353.12C595.167 352.827 595.32 352.367 595.32 351.74V350.98C595.32 350.353 595.167 349.9 594.86 349.62C594.554 349.327 594.047 349.18 593.34 349.18H591.2V353.54H593.34ZM606.273 349.2V361H603.673V349.2H599.473V347.04H610.473V349.2H606.273Z" fill="white"/>
<path d="M365 242H437V246H365V242Z" fill="black"/>
<path d="M361 250V246H365V250H361Z" fill="black"/>
<path d="M357 254V250H361V254H357Z" fill="black"/>
<path d="M353 258V254H357V258H353Z" fill="black"/>
<path d="M349 262V258H353V262H349Z" fill="black"/>
<path d="M345 266V262H349V266H345Z" fill="black"/>
<path d="M357 282H365V294H357V282Z" fill="black"/>
<path fill-rule="evenodd" clip-rule="evenodd" d="M457 266H461V278H465V286H469V310H345V306H341V266H345V274H457V266ZM345 302H457V278H345V302Z" fill="black"/>
<path d="M453 262H457V266H453V262Z" fill="black"/>
<path d="M449 258H453V262H449V258Z" fill="black"/>
<path d="M445 254H449V258H445V254Z" fill="black"/>
<path d="M441 250H445V254H441V250Z" fill="black"/>
<path d="M441 250V246H437V250H441Z" fill="black"/>
<path d="M365 246V250H361V254H357V258H353V262H349V266H345V274H457V266H453V262H449V258H445V254H441V250H437V246H365Z" fill="#4D7BFF"/>
<path fill-rule="evenodd" clip-rule="evenodd" d="M345 278H457V302H345V278ZM365 294H357V282H365V294Z" fill="#4D7BFF"/>
<path d="M352.595 361V359.04H355.735V349H352.595V347.04H361.475V349H358.335V359.04H361.475V361H352.595ZM366.807 350.98H366.607V361H364.367V347.04H367.587L371.247 357.06H371.447V347.04H373.687V361H370.467L366.807 350.98ZM382.32 349.2V361H379.72V349.2H375.52V347.04H386.52V349.2H382.32ZM391.232 361H388.612V347.04H393.912C395.272 347.04 396.312 347.427 397.032 348.2C397.752 348.973 398.112 350.027 398.112 351.36C398.112 352.387 397.872 353.253 397.392 353.96C396.925 354.653 396.252 355.093 395.372 355.28L398.352 361H395.472L392.812 355.58H391.232V361ZM393.372 353.54C394.078 353.54 394.585 353.4 394.892 353.12C395.198 352.827 395.352 352.367 395.352 351.74V350.98C395.352 350.353 395.198 349.9 394.892 349.62C394.585 349.327 394.078 349.18 393.372 349.18H391.232V353.54H393.372ZM405.004 361.24C404.097 361.24 403.311 361.08 402.644 360.76C401.977 360.427 401.424 359.953 400.984 359.34C400.557 358.727 400.237 357.973 400.024 357.08C399.824 356.187 399.724 355.167 399.724 354.02C399.724 352.887 399.824 351.873 400.024 350.98C400.237 350.073 400.557 349.313 400.984 348.7C401.424 348.087 401.977 347.62 402.644 347.3C403.311 346.967 404.097 346.8 405.004 346.8C406.817 346.8 408.151 347.433 409.004 348.7C409.857 349.967 410.284 351.74 410.284 354.02C410.284 356.3 409.857 358.073 409.004 359.34C408.151 360.607 406.817 361.24 405.004 361.24ZM405.004 359.1C405.471 359.1 405.864 359.013 406.184 358.84C406.504 358.653 406.757 358.393 406.944 358.06C407.144 357.727 407.284 357.32 407.364 356.84C407.457 356.347 407.504 355.8 407.504 355.2V352.82C407.504 351.62 407.317 350.673 406.944 349.98C406.584 349.287 405.937 348.94 405.004 348.94C404.071 348.94 403.417 349.287 403.044 349.98C402.684 350.673 402.504 351.62 402.504 352.82V355.22C402.504 356.42 402.684 357.367 403.044 358.06C403.417 358.753 404.071 359.1 405.004 359.1ZM415.156 361L411.336 347.04H414.216L415.956 354.1L416.976 358.5H417.116L418.156 354.1L419.916 347.04H422.656L418.836 361H415.156ZM424.648 361V347.04H433.468V349.2H427.268V352.84H433.248V355H427.268V358.84H433.468V361H424.648ZM439.2 361H436.58V347.04H441.88C443.24 347.04 444.28 347.427 445 348.2C445.72 348.973 446.08 350.027 446.08 351.36C446.08 352.387 445.84 353.253 445.36 353.96C444.894 354.653 444.22 355.093 443.34 355.28L446.32 361H443.44L440.78 355.58H439.2V361ZM441.34 353.54C442.047 353.54 442.554 353.4 442.86 353.12C443.167 352.827 443.32 352.367 443.32 351.74V350.98C443.32 350.353 443.167 349.9 442.86 349.62C442.554 349.327 442.047 349.18 441.34 349.18H439.2V353.54H441.34ZM454.273 349.2V361H451.673V349.2H447.473V347.04H458.473V349.2H454.273Z" fill="white"/>
<path d="M213 242H285V246H213V242Z" fill="black"/>
<path d="M209 250V246H213V250H209Z" fill="black"/>
<path d="M205 254V250H209V254H205Z" fill="black"/>
<path d="M201 258V254H205V258H201Z" fill="black"/>
<path d="M197 262V258H201V262H197Z" fill="black"/>
<path d="M193 266V262H197V266H193Z" fill="black"/>
<path d="M205 282H213V294H205V282Z" fill="black"/>
<path fill-rule="evenodd" clip-rule="evenodd" d="M305 266H309V278H313V286H317V310H193V306H189V266H193V274H305V266ZM193 302H305V278H193V302Z" fill="black"/>
<path d="M301 262H305V266H301V262Z" fill="black"/>
<path d="M297 258H301V262H297V258Z" fill="black"/>
<path d="M293 254H297V258H293V254Z" fill="black"/>
<path d="M289 250H293V254H289V250Z" fill="black"/>
<path d="M289 250V246H285V250H289Z" fill="black"/>
<path d="M213 246V250H209V254H205V258H201V262H197V266H193V274H305V266H301V262H297V258H293V254H289V250H285V246H213Z" fill="#FF90FF"/>
<path fill-rule="evenodd" clip-rule="evenodd" d="M193 278H305V302H193V278ZM213 294H205V282H213V294Z" fill="#FF90FF"/>
<path d="M214.011 361L213.031 357.46H208.891L207.931 361H205.291L209.211 347.04H212.851L216.791 361H214.011ZM211.051 349.62H210.891L209.351 355.32H212.591L211.051 349.62ZM225.783 354.54L225.903 350.5H225.723L223.023 357.68L220.323 350.5H220.143L220.263 354.54V361H217.983V347.04H221.103L223.043 352.18H223.183L225.143 347.04H228.063V361H225.783V354.54ZM230.616 347.04H235.476C236.796 347.04 237.809 347.373 238.516 348.04C239.236 348.693 239.596 349.587 239.596 350.72C239.596 351.52 239.396 352.16 238.996 352.64C238.609 353.12 238.056 353.467 237.336 353.68V353.78C238.176 353.98 238.836 354.347 239.316 354.88C239.809 355.4 240.056 356.14 240.056 357.1C240.056 357.687 239.956 358.22 239.756 358.7C239.569 359.167 239.296 359.573 238.936 359.92C238.589 360.267 238.162 360.533 237.656 360.72C237.162 360.907 236.602 361 235.976 361H230.616V347.04ZM235.176 359.1C235.909 359.1 236.456 358.967 236.816 358.7C237.189 358.42 237.376 357.947 237.376 357.28V356.62C237.376 355.967 237.189 355.507 236.816 355.24C236.456 354.96 235.909 354.82 235.176 354.82H233.176V359.1H235.176ZM234.836 353C235.542 353 236.062 352.873 236.396 352.62C236.742 352.367 236.916 351.927 236.916 351.3V350.64C236.916 350.013 236.742 349.573 236.396 349.32C236.062 349.067 235.542 348.94 234.836 348.94H233.176V353H234.836ZM242.568 361V359.04H245.708V349H242.568V347.04H251.448V349H248.308V359.04H251.448V361H242.568ZM257.16 361L253.34 347.04H256.22L257.96 354.1L258.98 358.5H259.12L260.16 354.1L261.92 347.04H264.66L260.84 361H257.16ZM266.652 361V347.04H275.472V349.2H269.272V352.84H275.252V355H269.272V358.84H275.472V361H266.652ZM281.204 361H278.584V347.04H283.884C285.244 347.04 286.284 347.427 287.004 348.2C287.724 348.973 288.084 350.027 288.084 351.36C288.084 352.387 287.844 353.253 287.364 353.96C286.898 354.653 286.224 355.093 285.344 355.28L288.324 361H285.444L282.784 355.58H281.204V361ZM283.344 353.54C284.051 353.54 284.558 353.4 284.864 353.12C285.171 352.827 285.324 352.367 285.324 351.74V350.98C285.324 350.353 285.171 349.9 284.864 349.62C284.558 349.327 284.051 349.18 283.344 349.18H281.204V353.54H283.344ZM296.277 349.2V361H293.677V349.2H289.477V347.04H300.477V349.2H296.277Z" fill="white"/>
<path d="M24 242H96V246H24V242Z" fill="black"/>
<path d="M20 250V246H24V250H20Z" fill="black"/>
<path d="M16 254V250H20V254H16Z" fill="black"/>
<path d="M12 258V254H16V258H12Z" fill="black"/>
<path d="M8 262V258H12V262H8Z" fill="black"/>
<path d="M4 266V262H8V266H4Z" fill="black"/>
<path d="M16 282H24V294H16V282Z" fill="black"/>
<path fill-rule="evenodd" clip-rule="evenodd" d="M116 266H120V278H124V286H128V310H4V306H0V266H4V274H116V266ZM4 302H116V278H4V302Z" fill="black"/>
<path d="M112 262H116V266H112V262Z" fill="black"/>
<path d="M108 258H112V262H108V258Z" fill="black"/>
<path d="M104 254H108V258H104V254Z" fill="black"/>
<path d="M100 250H104V254H100V250Z" fill="black"/>
<path d="M100 250V246H96V250H100Z" fill="black"/>
<path d="M24 246V250H20V254H16V258H12V262H8V266H4V274H116V266H112V262H108V258H104V254H100V250H96V246H24Z" fill="#C4C4C4"/>
<path fill-rule="evenodd" clip-rule="evenodd" d="M4 278H116V302H4V278ZM24 294H16V282H24V294Z" fill="#C4C4C4"/>
<path d="M24.7913 354.54L24.9113 350.5H24.7313L22.0313 357.68L19.3313 350.5H19.1513L19.2713 354.54V361H16.9913V347.04H20.1113L22.0513 352.18H22.1913L24.1513 347.04H27.0713V361H24.7913V354.54ZM32.7234 361V355.9L28.1834 347.04H31.1034L32.7234 350.4L33.9834 353.26H34.1234L35.4034 350.4L37.0434 347.04H39.8634L35.3234 355.9V361H32.7234ZM53.4678 347.04H57.8078C59.6211 347.04 60.9678 347.64 61.8478 348.84C62.7411 350.04 63.1878 351.767 63.1878 354.02C63.1878 356.287 62.7411 358.02 61.8478 359.22C60.9678 360.407 59.6211 361 57.8078 361H53.4678V347.04ZM57.6278 358.9C58.5878 358.9 59.2945 358.587 59.7478 357.96C60.2145 357.333 60.4478 356.42 60.4478 355.22V352.8C60.4478 351.613 60.2145 350.707 59.7478 350.08C59.2945 349.453 58.5878 349.14 57.6278 349.14H56.0478V358.9H57.6278ZM68.22 361H65.6V347.04H70.9C72.26 347.04 73.3 347.427 74.02 348.2C74.74 348.973 75.1 350.027 75.1 351.36C75.1 352.387 74.86 353.253 74.38 353.96C73.9133 354.653 73.24 355.093 72.36 355.28L75.34 361H72.46L69.8 355.58H68.22V361ZM70.36 353.54C71.0667 353.54 71.5733 353.4 71.88 353.12C72.1867 352.827 72.34 352.367 72.34 351.74V350.98C72.34 350.353 72.1867 349.9 71.88 349.62C71.5733 349.327 71.0667 349.18 70.36 349.18H68.22V353.54H70.36ZM77.5522 361V359.04H80.6922V349H77.5522V347.04H86.4322V349H83.2922V359.04H86.4322V361H77.5522ZM92.1444 361L88.3244 347.04H91.2044L92.9444 354.1L93.9644 358.5H94.1044L95.1444 354.1L96.9044 347.04H99.6444L95.8244 361H92.1444ZM101.637 361V347.04H110.457V349.2H104.257V352.84H110.237V355H104.257V358.84H110.457V361H101.637Z" fill="white"/>
<path d="M565 4H497V124H589V28H565V4Z" fill="#FF5C5C"/>
<path d="M573 4H569V24H589V20H585V16H581V12H577V8H573V4Z" fill="#FF5C5C"/>
<path fill-rule="evenodd" clip-rule="evenodd" d="M493 0H573V4H569V24H589V20H593V104H605V108H613V112H621V128H493V0ZM589 28H565V4H497V124H589V28Z" fill="black"/>
<path d="M585 16H589V20H585V16Z" fill="black"/>
<path d="M581 12H585V16H581V12Z" fill="black"/>
<path d="M577 8H581V12H577V8Z" fill="black"/>
<path d="M577 8V4H573V8H577Z" fill="black"/>
<path fill-rule="evenodd" clip-rule="evenodd" d="M545 46H557V48H559V50H561V54V58V62H559V64H557V66H545V64H543V62H541V58V54V50H543V48H545V46ZM555 54H557V58H555V60H553V62H549V60H547V58H545V54H547V52H549V50H553V52H555V54ZM557 68H543H541V70H539V72H541V74H543V72H557V74H559V76H561V82H565V72H563V70H561V68H557ZM527 78H529V76H535V78H537V82H541V76H539V74H537V72H527V74H525V76H523V82H527V78ZM535 66H529V60H535V66ZM537 68V70H527V68H525V58H527V56H537V58H539V68H537Z" fill="black"/>
<path d="M522.623 157V143.04H527.923C529.283 143.04 530.323 143.427 531.043 144.2C531.763 144.973 532.123 146.027 532.123 147.36C532.123 148.693 531.763 149.747 531.043 150.52C530.323 151.293 529.283 151.68 527.923 151.68H525.243V157H522.623ZM525.243 149.54H527.383C528.09 149.54 528.597 149.4 528.903 149.12C529.21 148.827 529.363 148.367 529.363 147.74V146.98C529.363 146.353 529.21 145.9 528.903 145.62C528.597 145.327 528.09 145.18 527.383 145.18H525.243V149.54ZM541.996 157L541.016 153.46H536.876L535.916 157H533.276L537.196 143.04H540.836L544.776 157H541.996ZM539.036 145.62H538.876L537.336 151.32H540.576L539.036 145.62ZM549.228 157H546.608V143.04H551.908C553.268 143.04 554.308 143.427 555.028 144.2C555.748 144.973 556.108 146.027 556.108 147.36C556.108 148.387 555.868 149.253 555.388 149.96C554.921 150.653 554.248 151.093 553.368 151.28L556.348 157H553.468L550.808 151.58H549.228V157ZM551.368 149.54C552.074 149.54 552.581 149.4 552.888 149.12C553.194 148.827 553.348 148.367 553.348 147.74V146.98C553.348 146.353 553.194 145.9 552.888 145.62C552.581 145.327 552.074 145.18 551.368 145.18H549.228V149.54H551.368ZM558.66 157V143.04H567.48V145.2H561.28V148.84H567.26V151H561.28V154.84H567.48V157H558.66ZM572.772 146.98H572.572V157H570.332V143.04H573.552L577.212 153.06H577.412V143.04H579.652V157H576.432L572.772 146.98ZM588.284 145.2V157H585.684V145.2H581.484V143.04H592.484V145.2H588.284Z" fill="white"/>
<path d="M413 4H345V124H437V28H413V4Z" fill="#FFFF50"/>
<path d="M421 4H417V24H437V20H433V16H429V12H425V8H421V4Z" fill="#FFFF50"/>
<path fill-rule="evenodd" clip-rule="evenodd" d="M389 48V46H393V82H389V80H387V78H385V76H383V74H381V72H379V70H377V68H375V66H373V62H375V60H377V58H379V56H381V54H383V52H385V50H387V48H389ZM387 72H389V56H387V58H385V60H383V62H381V66H383V68H385V70H387V72ZM405 62V60H409V64H407V66H409V70H405V68H403V70H399V66H401V64H399V60H403V62H405Z" fill="black"/>
<path fill-rule="evenodd" clip-rule="evenodd" d="M341 0H421V4H417V24H437V20H441V104H453V108H461V112H469V128H341V0ZM437 28H413V4H345V124H437V28Z" fill="black"/>
<path d="M433 16H437V20H433V16Z" fill="black"/>
<path d="M429 12H433V16H429V12Z" fill="black"/>
<path d="M425 8H429V12H425V8Z" fill="black"/>
<path d="M425 8V4H421V8H425Z" fill="black"/>
<path d="M358.491 143.04H362.831C364.645 143.04 365.991 143.64 366.871 144.84C367.765 146.04 368.211 147.767 368.211 150.02C368.211 152.287 367.765 154.02 366.871 155.22C365.991 156.407 364.645 157 362.831 157H358.491V143.04ZM362.651 154.9C363.611 154.9 364.318 154.587 364.771 153.96C365.238 153.333 365.471 152.42 365.471 151.22V148.8C365.471 147.613 365.238 146.707 364.771 146.08C364.318 145.453 363.611 145.14 362.651 145.14H361.071V154.9H362.651ZM370.683 157V143.04H379.503V145.2H373.303V148.84H379.283V151H373.303V154.84H379.503V157H370.683ZM389.996 157L389.016 153.46H384.876L383.916 157H381.276L385.196 143.04H388.836L392.776 157H389.996ZM387.036 145.62H386.876L385.336 151.32H388.576L387.036 145.62ZM394.668 157V143.04H403.788V145.2H397.288V148.84H403.148V151H397.288V157H394.668ZM406.56 159.76L413.14 141.8H415.44L408.86 159.76H406.56ZM425.032 151H420.952V157H418.332V143.04H420.952V148.84H425.032V143.04H427.652V157H425.032V151ZM434.984 157.24C434.078 157.24 433.291 157.08 432.624 156.76C431.958 156.427 431.404 155.953 430.964 155.34C430.538 154.727 430.218 153.973 430.004 153.08C429.804 152.187 429.704 151.167 429.704 150.02C429.704 148.887 429.804 147.873 430.004 146.98C430.218 146.073 430.538 145.313 430.964 144.7C431.404 144.087 431.958 143.62 432.624 143.3C433.291 142.967 434.078 142.8 434.984 142.8C436.798 142.8 438.131 143.433 438.984 144.7C439.838 145.967 440.264 147.74 440.264 150.02C440.264 152.3 439.838 154.073 438.984 155.34C438.131 156.607 436.798 157.24 434.984 157.24ZM434.984 155.1C435.451 155.1 435.844 155.013 436.164 154.84C436.484 154.653 436.738 154.393 436.924 154.06C437.124 153.727 437.264 153.32 437.344 152.84C437.438 152.347 437.484 151.8 437.484 151.2V148.82C437.484 147.62 437.298 146.673 436.924 145.98C436.564 145.287 435.918 144.94 434.984 144.94C434.051 144.94 433.398 145.287 433.024 145.98C432.664 146.673 432.484 147.62 432.484 148.82V151.22C432.484 152.42 432.664 153.367 433.024 154.06C433.398 154.753 434.051 155.1 434.984 155.1ZM449.017 151H444.937V157H442.317V143.04H444.937V148.84H449.017V143.04H451.637V157H449.017V151Z" fill="white"/>
<path d="M261 4H193V124H285V28H261V4Z" fill="#FFFF50"/>
<path d="M269 4H265V24H285V20H281V16H277V12H273V8H269V4Z" fill="#FFFF50"/>
<path fill-rule="evenodd" clip-rule="evenodd" d="M245 68H249V72H253V76H257V80H261V86H257V84H253V80H249V76H245V72H241V68H237V64H233V60H229V56H225V52H221V48H217V42H221V44H225V48H229V52H233V56H237V60H241V64H245V68ZM257 54H255V52H253V50H249V46H233V50H245V54H249V56H251V58H253V62H257V66H253V70H261V58H257V54ZM233 74H229V72H227V70H225V66H221V62H225V58H217V70H221V74H223V76H225V78H229V82H245V78H233V74Z" fill="black"/>
<path fill-rule="evenodd" clip-rule="evenodd" d="M189 0H269V4H265V24H285V20H289V104H301V108H309V112H317V128H189V0ZM285 28H261V4H193V124H285V28Z" fill="black"/>
<path d="M281 16H285V20H281V16Z" fill="black"/>
<path d="M277 12H281V16H277V12Z" fill="black"/>
<path d="M273 8H277V12H273V8Z" fill="black"/>
<path d="M273 8V4H269V8H273Z" fill="black"/>
<path d="M195.039 157V143.04H197.659V154.84H203.839V157H195.039ZM211.031 157.24C210.125 157.24 209.338 157.08 208.671 156.76C208.005 156.427 207.451 155.953 207.011 155.34C206.585 154.727 206.265 153.973 206.051 153.08C205.851 152.187 205.751 151.167 205.751 150.02C205.751 148.887 205.851 147.873 206.051 146.98C206.265 146.073 206.585 145.313 207.011 144.7C207.451 144.087 208.005 143.62 208.671 143.3C209.338 142.967 210.125 142.8 211.031 142.8C212.845 142.8 214.178 143.433 215.031 144.7C215.885 145.967 216.311 147.74 216.311 150.02C216.311 152.3 215.885 154.073 215.031 155.34C214.178 156.607 212.845 157.24 211.031 157.24ZM211.031 155.1C211.498 155.1 211.891 155.013 212.211 154.84C212.531 154.653 212.785 154.393 212.971 154.06C213.171 153.727 213.311 153.32 213.391 152.84C213.485 152.347 213.531 151.8 213.531 151.2V148.82C213.531 147.62 213.345 146.673 212.971 145.98C212.611 145.287 211.965 144.94 211.031 144.94C210.098 144.94 209.445 145.287 209.071 145.98C208.711 146.673 208.531 147.62 208.531 148.82V151.22C208.531 152.42 208.711 153.367 209.071 154.06C209.445 154.753 210.098 155.1 211.031 155.1ZM218.323 157L217.383 143.04H219.643L220.083 151.08L220.263 154.4H220.443L221.843 146.26H224.283L225.683 154.4H225.863L226.043 151.08L226.483 143.04H228.663L227.723 157H224.343L223.103 149.1H222.943L221.703 157H218.323ZM245.168 157L241.348 143.04H244.228L245.968 150.1L246.988 154.5H247.128L248.168 150.1L249.928 143.04H252.668L248.848 157H245.168ZM254.56 157V155.04H257.7V145H254.56V143.04H263.44V145H260.3V155.04H263.44V157H254.56ZM270.832 157.24C269.632 157.24 268.606 157.033 267.752 156.62C266.912 156.207 266.226 155.66 265.692 154.98L267.272 153.34C267.792 153.94 268.352 154.387 268.952 154.68C269.566 154.96 270.219 155.1 270.912 155.1C271.712 155.1 272.326 154.92 272.752 154.56C273.179 154.2 273.392 153.68 273.392 153C273.392 152.44 273.232 152.02 272.912 151.74C272.592 151.447 272.052 151.24 271.292 151.12L269.812 150.88C268.519 150.653 267.599 150.187 267.052 149.48C266.506 148.76 266.232 147.913 266.232 146.94C266.232 145.607 266.666 144.587 267.532 143.88C268.399 143.16 269.599 142.8 271.132 142.8C272.226 142.8 273.166 142.973 273.952 143.32C274.752 143.667 275.392 144.14 275.872 144.74L274.332 146.38C273.959 145.94 273.512 145.593 272.992 145.34C272.472 145.073 271.859 144.94 271.152 144.94C269.632 144.94 268.872 145.567 268.872 146.82C268.872 147.353 269.032 147.76 269.352 148.04C269.672 148.32 270.219 148.527 270.992 148.66L272.452 148.92C273.666 149.147 274.566 149.593 275.152 150.26C275.739 150.927 276.032 151.78 276.032 152.82C276.032 153.473 275.919 154.073 275.692 154.62C275.466 155.153 275.132 155.62 274.692 156.02C274.252 156.407 273.706 156.707 273.052 156.92C272.412 157.133 271.672 157.24 270.832 157.24ZM278.544 157V155.04H281.684V145H278.544V143.04H287.424V145H284.284V155.04H287.424V157H278.544ZM294.977 157.24C294.07 157.24 293.283 157.08 292.617 156.76C291.95 156.427 291.397 155.953 290.957 155.34C290.53 154.727 290.21 153.973 289.997 153.08C289.797 152.187 289.697 151.167 289.697 150.02C289.697 148.887 289.797 147.873 289.997 146.98C290.21 146.073 290.53 145.313 290.957 144.7C291.397 144.087 291.95 143.62 292.617 143.3C293.283 142.967 294.07 142.8 294.977 142.8C296.79 142.8 298.123 143.433 298.977 144.7C299.83 145.967 300.257 147.74 300.257 150.02C300.257 152.3 299.83 154.073 298.977 155.34C298.123 156.607 296.79 157.24 294.977 157.24ZM294.977 155.1C295.443 155.1 295.837 155.013 296.157 154.84C296.477 154.653 296.73 154.393 296.917 154.06C297.117 153.727 297.257 153.32 297.337 152.84C297.43 152.347 297.477 151.8 297.477 151.2V148.82C297.477 147.62 297.29 146.673 296.917 145.98C296.557 145.287 295.91 144.94 294.977 144.94C294.043 144.94 293.39 145.287 293.017 145.98C292.657 146.673 292.477 147.62 292.477 148.82V151.22C292.477 152.42 292.657 153.367 293.017 154.06C293.39 154.753 294.043 155.1 294.977 155.1ZM304.749 146.98H304.549V157H302.309V143.04H305.529L309.189 153.06H309.389V143.04H311.629V157H308.409L304.749 146.98ZM218.583 185.76L225.163 167.8H227.463L220.883 185.76H218.583ZM230.616 169.04H235.476C236.796 169.04 237.809 169.373 238.516 170.04C239.236 170.693 239.596 171.587 239.596 172.72C239.596 173.52 239.396 174.16 238.996 174.64C238.609 175.12 238.056 175.467 237.336 175.68V175.78C238.176 175.98 238.836 176.347 239.316 176.88C239.809 177.4 240.056 178.14 240.056 179.1C240.056 179.687 239.956 180.22 239.756 180.7C239.569 181.167 239.296 181.573 238.936 181.92C238.589 182.267 238.162 182.533 237.656 182.72C237.162 182.907 236.602 183 235.976 183H230.616V169.04ZM235.176 181.1C235.909 181.1 236.456 180.967 236.816 180.7C237.189 180.42 237.376 179.947 237.376 179.28V178.62C237.376 177.967 237.189 177.507 236.816 177.24C236.456 176.96 235.909 176.82 235.176 176.82H233.176V181.1H235.176ZM234.836 175C235.542 175 236.062 174.873 236.396 174.62C236.742 174.367 236.916 173.927 236.916 173.3V172.64C236.916 172.013 236.742 171.573 236.396 171.32C236.062 171.067 235.542 170.94 234.836 170.94H233.176V175H234.836ZM243.008 183V169.04H245.628V180.84H251.808V183H243.008ZM254.56 183V181.04H257.7V171H254.56V169.04H263.44V171H260.3V181.04H263.44V183H254.56ZM268.772 172.98H268.572V183H266.332V169.04H269.552L273.212 179.06H273.412V169.04H275.652V183H272.432L268.772 172.98ZM278.444 169.04H282.784C284.598 169.04 285.944 169.64 286.824 170.84C287.718 172.04 288.164 173.767 288.164 176.02C288.164 178.287 287.718 180.02 286.824 181.22C285.944 182.407 284.598 183 282.784 183H278.444V169.04ZM282.604 180.9C283.564 180.9 284.271 180.587 284.724 179.96C285.191 179.333 285.424 178.42 285.424 177.22V174.8C285.424 173.613 285.191 172.707 284.724 172.08C284.271 171.453 283.564 171.14 282.604 171.14H281.024V180.9H282.604Z" fill="white"/>
<path d="M72 4H4V124H96V28H72V4Z" fill="#4D7BFF"/>
<path d="M80 4H76V24H96V20H92V16H88V12H84V8H80V4Z" fill="#4D7BFF"/>
<path d="M62 56V52H64V44H60V48H58V56H48V52H50V44H46V48H44V56H30V60H42V62H40V68H30V72H38V76H36V84H40V82V80H42V72H52V74V76H50V84H54V80H56V72H70V68H58V66H60V60H70V56H62ZM56 62H54V68H44V66H46V60H56V62Z" fill="black"/>
<path fill-rule="evenodd" clip-rule="evenodd" d="M0 0H80V4H76V24H96V20H100V104H112V108H120V112H128V128H0V0ZM96 28H72V4H4V124H96V28Z" fill="black"/>
<path d="M92 16H96V20H92V16Z" fill="black"/>
<path d="M88 12H92V16H88V12Z" fill="black"/>
<path d="M84 8H88V12H84V8Z" fill="black"/>
<path d="M84 8V4H80V8H84Z" fill="black"/>
<path d="M30.7873 150.54L30.9073 146.5H30.7273L28.0273 153.68L25.3273 146.5H25.1473L25.2673 150.54V157H22.9873V143.04H26.1073L28.0473 148.18H28.1873L30.1473 143.04H33.0673V157H30.7873V150.54ZM38.7195 157V151.9L34.1795 143.04H37.0995L38.7195 146.4L39.9795 149.26H40.1195L41.3995 146.4L43.0395 143.04H45.8595L41.3195 151.9V157H38.7195ZM59.6639 157V143.04H68.7839V145.2H62.2839V148.84H68.1439V151H62.2839V157H59.6639ZM71.5561 157V155.04H74.6961V145H71.5561V143.04H80.4361V145H77.2961V155.04H80.4361V157H71.5561ZM83.9883 157V143.04H86.6083V154.84H92.7883V157H83.9883ZM95.6405 157V143.04H104.46V145.2H98.2605V148.84H104.24V151H98.2605V154.84H104.46V157H95.6405Z" fill="white"/>
</svg>
