<svg width="24" height="24" viewBox="0 0 24 24" fill="none" xmlns="http://www.w3.org/2000/svg">
<path fill-rule="evenodd" clip-rule="evenodd" d="M9 0.000488281H15V1.00049H18V2.00049H19V3.00049H20V4.00049H21V5.00049H22V6.00049H23V8.00049V9.00049H24V11.0005V12.0005V13.0005V15.0005H23V16.0005V18.0005H22V19.0005H21V20.0005H20V21.0005H19V22.0005H18V23.0005H15V24.0005H9V23.0005H6V22.0005H5V21.0005H4V20.0005H3V19.0005H2V18.0005H1V16.0005V15.0005H0V13.0005V12.0005V11.0005V9.00049H1V8.00049V6.00049H2V5.00049H3V4.00049H4V3.00049H5V2.00049H6V1.00049H9V0.000488281ZM6 13.0005V16.0005H3V15.0005H2V13.0005H6ZM8 13.0005H16V16.0005H8V13.0005ZM18 13.0005V16.0005H21V15.0005H22V13.0005H18ZM6 8.00049V11.0005H2V9.00049H3V8.00049H6ZM8 11.0005H16V8.00049H8V11.0005ZM22 9.00049V11.0005H18V8.00049H21V9.00049H22ZM20 18.0005H17V19.0005V20.0005H16V21.0005H15V22.0005H17V21.0005H18V20.0005H19V19.0005H20V18.0005ZM15 18.0005H9V19.0005V20.0005H10V21.0005H11V22.0005H13V21.0005H14V20.0005H15V19.0005V18.0005ZM7 18.0005H4V19.0005H5V20.0005H6V21.0005H7V22.0005H9V21.0005H8V20.0005H7V19.0005V18.0005ZM7 6.00049H4V5.00049H5V4.00049H6V3.00049H7V2.00049H9V3.00049H8V4.00049H7V5.00049V6.00049ZM15 6.00049H9V5.00049V4.00049H10V3.00049H11V2.00049H13V3.00049H14V4.00049H15V5.00049V6.00049ZM20 6.00049H17V5.00049V4.00049H16V3.00049H15V2.00049H17V3.00049H18V4.00049H19V5.00049H20V6.00049Z" fill="black"/>
</svg>
