<svg width="25" height="24" viewBox="0 0 25 24" fill="none" xmlns="http://www.w3.org/2000/svg">
<path fill-rule="evenodd" clip-rule="evenodd" d="M19.8889 2H14.8889V3H13.8889V4V5H12.8889V6H11.8889V7H12.8889V8H9.88892V7H6.88892V6H4.88892V5H3.88892V4H2.88892V3H1.88892V4V5V6V7V8H2.88892V9H3.88892V10H1.88892V11V12H2.88892V13H4.88892V14H2.88892V15H4.88892V16H5.88892V17H7.88892V18H5.88892V19H0.888916V20H2.88892V21H5.88892V22H10.8889V21H13.8889V20H15.8889V19H16.8889V18H17.8889V17H18.8889V16H19.8889V15H20.8889V14V13H21.8889V12V11V10H22.8889V9V8V7V6H23.8889V5H24.8889V4H23.8889V3H24.8889V2H22.8889V3H21.8889V4H20.8889V3H19.8889V2ZM23.8889 4V5H22.8889V4H23.8889Z" fill="black"/>
</svg>
