<svg width="25" height="24" viewBox="0 0 25 24" fill="none" xmlns="http://www.w3.org/2000/svg">
<path fill-rule="evenodd" clip-rule="evenodd" d="M5.77783 2H19.7778V3H20.7778V4H21.7778V5H22.7778V6V18V19H21.7778V20H20.7778V21H19.7778V22H5.77783V21H4.77783V20H3.77783V19H2.77783V18V6V5H3.77783V4H4.77783V3H5.77783V2ZM20.7778 18V6H19.7778V5H18.7778V4H6.77783V5H5.77783V6H4.77783V18H5.77783V19H6.77783V20H18.7778V19H19.7778V18H20.7778ZM17.7778 6H18.7778V7H17.7778V6ZM9.77783 7H15.7778V8H16.7778V9H17.7778V10V14V15H16.7778V16H15.7778V17H9.77783V16H8.77783V15H7.77783V14V10V9H8.77783V8H9.77783V7ZM14.7778 14V15H10.7778V14H9.77783V10H10.7778V9H14.7778V10H15.7778V14H14.7778Z" fill="black"/>
</svg>
