<svg width="1815" height="535" viewBox="0 0 1815 535" fill="none" xmlns="http://www.w3.org/2000/svg">
<path d="M1772.53 534C1688.65 501.396 1782.31 464.327 1751.56 426.717C1719.41 388.025 1651.38 388.566 1605.24 336.346C1575.89 303.335 1781.85 208.229 1791.17 174.272C1801.88 133.415 1703.1 112.581 1742.71 72.6712C1766.47 48.8607 1790.24 25.1852 1814 1.37468" stroke="url(#paint0_linear_2_236)" stroke-miterlimit="10"/>
<path d="M1724.53 534C1668.62 512.354 1691.45 488.543 1703.56 464.056C1709.62 451.881 1712.88 439.57 1702.63 427.123C1671.41 388.566 1603.38 388.431 1561.44 336.887C1553.06 326.605 1567.5 310.776 1590.33 292.783C1639.26 254.632 1723.6 207.011 1740.38 180.765C1741.77 178.601 1742.71 176.572 1743.17 174.678C1750.63 141.262 1686.79 120.969 1684.93 92.8288C1684.46 86.6056 1687.26 79.9765 1694.25 72.8063C1717.54 48.9958 1741.77 25.1852 1765.54 1.37468" stroke="url(#paint1_linear_2_236)" stroke-miterlimit="10"/>
<path d="M1676.54 534C1621.09 512.489 1643.45 488.814 1655.1 464.327C1661.16 452.287 1664.42 439.975 1654.64 427.529C1624.35 389.243 1555.85 388.296 1518.57 337.428C1511.12 327.146 1526.03 311.317 1549.33 293.46C1599.65 255.173 1678.87 207.823 1693.78 181.171C1695.18 179.007 1696.11 176.977 1696.11 175.083C1701.7 141.803 1639.26 121.239 1637.4 93.0994C1636.93 86.8762 1639.26 80.2471 1646.25 73.0768C1669.08 49.131 1693.31 25.3207 1717.54 1.51015" stroke="url(#paint2_linear_2_236)" stroke-miterlimit="10"/>
<path d="M1628.54 534C1573.09 512.489 1594.99 488.949 1606.64 464.598C1612.7 452.557 1615.5 440.381 1606.18 427.935C1576.35 389.919 1508.32 388.16 1474.77 337.969C1467.78 327.552 1484.09 311.859 1507.86 294.136C1559.58 255.579 1633.67 208.635 1646.72 181.577C1647.65 179.413 1648.58 177.383 1649.05 175.489C1653.24 142.479 1592.2 121.645 1589.87 93.2348C1589.4 87.0116 1591.73 80.3824 1598.72 73.2122C1621.09 49.2664 1645.78 25.4558 1669.55 1.37468" stroke="url(#paint3_linear_2_236)" stroke-miterlimit="10"/>
<path d="M1580.08 534C1525.1 512.625 1546.07 489.085 1558.18 464.868C1563.77 452.963 1567.03 440.652 1557.71 428.341C1528.82 390.596 1460.79 388.025 1431.44 338.51C1425.38 327.958 1442.15 312.4 1466.38 294.812C1519.51 256.12 1588.47 209.446 1599.65 181.983C1600.58 179.818 1601.52 177.789 1601.52 175.895C1603.85 143.02 1544.2 121.916 1541.87 93.5053C1541.41 87.1468 1543.74 80.5179 1550.26 73.3476C1572.16 49.2666 1596.86 25.4558 1621.09 1.37468" stroke="url(#paint4_linear_2_236)" stroke-miterlimit="10"/>
<path d="M1532.09 534C1477.57 512.76 1498.07 489.22 1509.72 465.139C1515.31 453.233 1518.11 441.058 1509.25 428.747C1481.29 391.272 1413.73 387.89 1388.1 339.051C1382.51 328.364 1400.68 312.941 1425.38 295.489C1479.9 256.662 1543.73 210.258 1553.05 182.389C1553.99 180.224 1554.45 178.195 1554.45 176.301C1555.38 143.561 1497.14 122.186 1494.34 93.7758C1493.88 87.4173 1496.21 80.7884 1502.73 73.6182C1524.16 49.4018 1549.33 25.5912 1573.56 1.51015" stroke="url(#paint5_linear_2_236)" stroke-miterlimit="10"/>
<path d="M1484.09 534C1429.57 512.895 1449.61 489.49 1461.26 465.409C1466.85 453.504 1469.65 441.464 1460.79 429.153C1433.3 391.949 1366.2 387.619 1344.76 339.592C1340.11 328.905 1359.21 313.482 1383.91 296.165C1439.82 257.203 1498.54 211.07 1505.99 182.795C1506.46 180.63 1506.92 178.601 1506.92 176.707C1506.46 144.103 1449.14 122.457 1446.35 94.0463C1445.88 87.6878 1448.21 80.9235 1454.27 73.7532C1475.24 49.5369 1500.87 25.7263 1525.1 1.37468" stroke="url(#paint6_linear_2_236)" stroke-miterlimit="10"/>
<path d="M1436.09 534C1382.04 512.895 1401.15 489.626 1412.8 465.68C1418.39 453.91 1421.18 441.734 1412.33 429.558C1386.24 392.625 1319.14 387.484 1301.43 340.134C1297.23 329.311 1317.27 314.023 1342.9 296.842C1400.21 257.744 1454.27 212.017 1459.86 183.065C1460.33 180.901 1460.79 178.871 1460.79 176.977C1458.46 144.508 1402.54 122.592 1399.75 94.0463C1399.28 87.5526 1401.15 80.9235 1407.67 73.7533C1428.64 49.4016 1453.8 25.5913 1478.03 1.23964" stroke="url(#paint7_linear_2_236)" stroke-miterlimit="10"/>
<path d="M1388.1 534C1334.05 513.031 1353.15 489.761 1364.34 465.951C1369.93 454.181 1372.26 442.14 1363.87 429.964C1338.24 393.301 1272.07 387.213 1258.09 340.675C1254.83 329.716 1275.8 314.564 1301.43 297.518C1360.14 258.285 1409.07 212.828 1412.8 183.471C1413.26 181.307 1413.26 179.277 1413.26 177.383C1409.53 145.185 1355.02 122.863 1351.75 94.3171C1350.82 87.8234 1353.15 81.1943 1359.21 74.0241C1379.71 49.6724 1405.34 25.7263 1429.57 1.37468" stroke="url(#paint8_linear_2_236)" stroke-miterlimit="10"/>
<path d="M1339.64 534C1286.05 513.166 1304.23 490.032 1315.41 466.221C1321 454.586 1323.33 442.546 1314.94 430.37C1290.25 393.978 1224.54 386.943 1214.29 341.351C1211.96 330.258 1233.86 315.241 1259.49 298.33C1320.07 258.826 1363.4 213.775 1365.27 184.012C1365.27 181.848 1365.73 179.818 1365.27 177.924C1360.14 145.861 1306.56 123.268 1303.29 94.7228C1302.36 88.229 1304.69 81.4648 1310.28 74.2946C1330.32 49.8077 1355.95 25.8618 1380.64 1.51015" stroke="url(#paint9_linear_2_236)" stroke-miterlimit="10"/>
<path d="M1291.64 534C1238.52 513.301 1256.23 490.167 1266.95 466.492C1272.07 454.857 1274.4 442.952 1266.48 430.776C1242.72 394.654 1177.95 386.808 1170.96 341.892C1169.09 330.664 1192.39 315.782 1218.49 299.006C1280.46 259.367 1319.14 214.722 1318.67 184.418C1318.67 182.254 1318.67 180.224 1318.2 178.33C1311.68 146.402 1259.49 123.674 1255.76 94.9936C1254.83 88.4998 1257.16 81.7354 1262.75 74.5651C1282.32 50.0782 1308.42 26.1324 1333.12 1.51015" stroke="url(#paint10_linear_2_236)" stroke-miterlimit="10"/>
<path d="M1243.65 534C1190.53 513.436 1207.77 490.302 1218.49 466.762C1223.61 455.127 1225.94 443.222 1218.02 431.182C1195.19 395.331 1131.35 386.537 1127.62 342.433C1126.69 331.069 1150.45 316.323 1177.01 299.683C1240.39 259.908 1274.4 215.534 1271.61 184.824C1271.61 182.659 1271.61 180.63 1271.14 178.736C1263.22 146.944 1211.96 123.945 1208.23 95.1287C1207.3 88.4996 1209.17 81.7355 1214.76 74.7006C1233.86 50.0783 1259.96 26.1324 1284.65 1.51015" stroke="url(#paint11_linear_2_236)" stroke-miterlimit="10"/>
<path d="M1195.65 534C1143 513.436 1159.31 490.438 1170.03 467.033C1175.15 455.534 1177.48 443.628 1170.03 431.587C1147.66 395.872 1085.22 386.131 1084.75 342.974C1084.75 331.475 1109.45 316.864 1136.48 300.359C1201.25 260.449 1230.14 216.346 1225.48 185.23C1225.01 183.065 1225.01 181.036 1224.54 179.142C1215.22 147.62 1164.9 124.215 1161.17 95.3992C1160.24 88.7701 1162.1 82.0059 1167.7 74.8356C1186.33 50.0781 1212.89 26.1324 1237.59 1.51015" stroke="url(#paint12_linear_2_236)" stroke-miterlimit="10"/>
<path d="M1147.66 534C1095 513.572 1111.31 490.708 1121.56 467.303C1126.69 455.804 1128.55 444.034 1121.56 431.993C1100.13 396.548 1039.09 385.861 1041.42 343.516C1041.88 331.881 1067.98 317.27 1095 301.035C1161.64 260.991 1185.4 217.293 1178.41 185.636C1177.95 183.471 1177.48 181.442 1177.01 179.548C1165.83 148.161 1117.37 124.486 1113.18 95.67C1112.24 89.041 1114.11 82.2764 1119.23 75.1062C1137.41 50.3486 1164.43 26.403 1189.13 1.51015" stroke="url(#paint13_linear_2_236)" stroke-miterlimit="10"/>
<path d="M1099.2 534C1047.01 513.707 1062.39 490.843 1072.64 467.574C1077.76 456.21 1079.63 444.305 1072.64 432.399C1052.13 397.225 992.024 385.59 997.615 344.057C999.013 332.287 1026.04 317.811 1053.53 301.712C1121.56 261.532 1140.67 218.105 1131.35 186.042C1130.88 183.877 1130.42 181.848 1129.49 179.954C1116.9 148.702 1069.38 124.757 1065.18 95.9406C1064.25 89.3115 1066.11 82.4118 1071.24 75.2416C1088.95 50.3488 1115.97 26.403 1141.14 1.51015" stroke="url(#paint14_linear_2_236)" stroke-miterlimit="10"/>
<path d="M1051.2 534C999.478 513.842 1013.92 490.979 1024.17 467.844C1029.3 456.48 1030.7 444.71 1024.17 432.805C1004.14 397.901 945.891 385.32 954.279 344.598C956.609 332.693 984.101 318.352 1012.06 302.388C1081.49 261.938 1095.93 219.052 1084.29 186.447C1083.35 184.283 1082.89 182.254 1082.42 180.36C1068.44 149.244 1022.31 125.027 1017.65 96.0756C1016.72 89.3113 1018.58 82.5472 1023.24 75.377C1040.48 50.4842 1067.98 26.403 1092.67 1.51015" stroke="url(#paint15_linear_2_236)" stroke-miterlimit="10"/>
<path d="M1003.21 534C951.483 513.978 965.928 491.249 975.713 468.115C980.373 456.751 982.237 445.116 975.713 433.211C956.608 398.578 899.76 385.049 910.943 345.139C914.205 333.099 942.629 318.894 970.588 302.93C1041.88 262.344 1050.74 219.728 1037.22 186.583C1036.29 184.418 1035.82 182.389 1034.89 180.495C1019.52 149.514 974.316 125.162 969.656 96.0756C968.724 89.3113 970.122 82.4119 975.247 75.377C992.022 50.3489 1019.51 26.2677 1044.68 1.23964" stroke="url(#paint16_linear_2_236)" stroke-miterlimit="10"/>
<path d="M955.211 534C903.954 513.978 917.467 491.385 927.253 468.386C931.912 457.157 933.776 445.522 927.253 433.617C909.08 399.254 854.095 384.778 867.142 345.68C871.336 333.504 900.692 319.435 929.116 303.606C1001.81 262.885 1006 220.54 990.159 186.989C989.227 184.824 988.295 182.795 987.363 180.765C970.588 150.055 926.32 125.298 921.661 96.211C920.729 89.4467 922.127 82.5472 926.786 75.377C943.095 50.3489 971.054 26.2676 996.216 1.10417" stroke="url(#paint17_linear_2_236)" stroke-miterlimit="10"/>
<path d="M907.216 534C855.959 514.113 869.006 491.52 878.791 468.656C883.451 457.427 884.849 445.793 878.791 434.023C861.084 399.93 807.963 384.508 823.806 346.222C828.932 333.91 859.221 319.976 887.645 304.283C961.735 263.426 961.734 221.487 943.095 187.394C942.163 185.23 941.232 183.201 939.834 181.171C921.661 150.597 878.791 125.568 873.666 96.4816C872.268 89.7172 874.132 82.8177 878.791 75.6475C894.634 50.4841 922.593 26.403 948.222 1.23964" stroke="url(#paint18_linear_2_236)" stroke-miterlimit="10"/>
<path d="M858.755 534C807.963 514.248 820.545 491.655 829.864 468.927C834.524 457.833 835.922 446.199 829.864 434.429C813.089 400.607 761.832 384.102 780.005 346.898C786.063 334.316 817.283 320.652 846.173 305.094C922.127 264.102 917.001 222.434 896.032 187.936C894.634 185.771 893.703 183.742 892.771 181.712C873.2 151.273 831.262 125.974 826.136 96.752C824.738 89.8524 826.602 82.9528 830.796 75.7825C846.639 50.4839 874.598 26.4028 899.76 1.10417" stroke="url(#paint19_linear_2_236)" stroke-miterlimit="10"/>
<path d="M810.759 534C760.434 514.383 772.083 491.926 781.402 469.197C786.062 458.104 786.994 446.605 781.402 434.835C765.559 401.283 716.166 383.831 736.669 347.439C743.659 334.722 775.811 321.193 804.701 305.771C882.053 264.643 872.267 223.246 848.968 188.342C847.571 186.177 846.638 184.148 845.24 182.118C824.738 151.814 783.266 126.245 778.141 97.0229C776.743 90.1233 778.141 83.2236 782.8 76.0534C798.178 50.7548 826.602 26.6736 851.764 1.23964" stroke="url(#paint20_linear_2_236)" stroke-miterlimit="10"/>
<path d="M762.765 534C712.439 514.519 723.623 492.061 732.942 469.468C737.602 458.51 738.534 446.875 732.942 435.24C717.565 401.96 670.502 383.561 693.334 347.98C701.722 335.128 734.34 321.734 763.23 306.447C842.446 265.184 827.535 224.192 801.906 188.747C800.509 186.583 799.11 184.554 797.713 182.524C775.812 152.49 735.738 126.515 730.146 97.2934C728.748 90.3937 730.147 83.3588 734.34 76.3239C749.251 50.8899 777.675 26.8086 803.304 1.37468" stroke="url(#paint21_linear_2_236)" stroke-miterlimit="10"/>
<path d="M714.768 534C664.909 514.519 675.626 492.196 684.48 469.739C688.674 458.78 689.606 447.281 684.946 435.646C670.501 402.636 625.302 383.29 650.464 348.521C659.784 335.534 692.868 322.276 722.69 307.123C803.303 265.726 784.198 225.004 755.774 189.153C753.91 186.989 752.978 184.959 751.114 182.93C727.816 153.032 688.674 126.921 683.082 97.4285C681.684 90.3935 683.082 83.4941 686.81 76.3239C701.255 50.8899 730.145 26.6734 755.774 1.10417" stroke="url(#paint22_linear_2_236)" stroke-miterlimit="10"/>
<path d="M666.308 534C616.449 514.654 626.7 492.467 635.554 470.009C639.747 459.051 640.68 447.687 636.02 436.052C622.507 403.313 579.637 383.019 606.663 349.062C616.915 335.94 650.931 322.817 680.753 307.8C763.231 266.267 739 225.816 708.246 189.559C706.382 187.53 704.984 185.365 703.12 183.336C678.423 153.573 640.679 127.192 634.622 97.6994C633.224 90.6644 634.622 83.6294 638.35 76.5944C652.329 51.0252 681.219 26.8089 706.848 1.23964" stroke="url(#paint23_linear_2_236)" stroke-miterlimit="10"/>
<path d="M618.312 534C568.919 514.789 578.704 492.602 587.092 470.28C591.286 459.457 592.217 448.093 587.558 436.458C574.51 403.989 534.436 382.749 563.327 349.604C574.976 336.346 609.458 323.358 639.747 308.476C724.088 266.808 695.198 226.628 661.648 189.965C659.784 187.936 658.385 185.771 656.521 183.742C630.427 154.114 593.615 127.462 587.558 97.9699C586.16 90.9349 587.092 83.9001 590.819 76.7299C604.333 51.0253 633.689 26.9442 659.318 1.23964" stroke="url(#paint24_linear_2_236)" stroke-miterlimit="10"/>
<path d="M570.317 534C521.39 514.925 530.244 492.737 538.632 470.55C542.825 459.727 543.291 448.363 539.097 436.864C526.982 404.53 488.772 382.478 519.993 350.145C532.574 336.751 567.988 323.899 598.276 309.153C684.015 267.349 650.465 227.575 615.051 190.236C613.187 188.206 611.323 186.041 609.459 184.012C581.967 154.52 546.087 127.597 540.029 98.1049C538.631 91.07 539.564 84.0351 543.291 76.8649C556.339 51.1604 585.695 26.944 611.789 1.10417" stroke="url(#paint25_linear_2_236)" stroke-miterlimit="10"/>
<path d="M522.322 534C473.395 515.06 481.782 492.872 490.17 470.821C494.364 460.133 494.829 448.769 490.636 437.27C479.452 405.207 443.572 382.343 476.657 350.686C490.636 337.293 526.516 324.44 557.27 309.829C644.873 267.89 606.663 228.387 568.454 190.641C566.124 188.612 564.26 186.447 562.396 184.418C533.971 155.061 499.023 127.868 492.5 98.2403C491.102 91.0701 492.034 84.0353 495.295 77.0003C507.877 51.1605 537.699 26.944 563.794 1.10417" stroke="url(#paint26_linear_2_236)" stroke-miterlimit="10"/>
<path d="M474.326 534C425.865 515.06 433.787 493.143 441.708 471.092C445.902 460.404 445.902 449.175 442.174 437.675C431.457 405.883 398.373 382.073 433.321 351.227C448.698 337.698 485.044 324.981 515.798 310.506C604.799 268.431 562.395 229.198 521.39 191.047C519.06 189.018 517.196 186.853 514.867 184.824C485.044 155.737 451.028 128.139 444.504 98.5108C443.106 91.3406 444.039 84.3056 447.3 77.1354C459.416 51.2956 489.704 27.0793 515.332 1.10417" stroke="url(#paint27_linear_2_236)" stroke-miterlimit="10"/>
<path d="M425.865 534C377.404 515.195 384.86 493.279 392.781 471.362C396.509 460.674 396.975 449.581 393.247 438.081C383.462 406.559 353.174 381.802 389.52 351.768C406.295 338.104 443.107 325.658 473.861 311.182C564.726 268.972 517.196 230.01 473.861 191.453C471.531 189.424 469.201 187.259 467.337 185.23C436.117 156.279 403.499 128.544 396.509 98.7813C394.646 91.6111 395.578 84.4412 398.839 77.4063C410.489 51.4311 440.777 27.2146 466.871 1.10417" stroke="url(#paint28_linear_2_236)" stroke-miterlimit="10"/>
<path d="M377.87 534C329.875 515.33 336.398 493.414 344.32 471.633C348.047 461.08 348.048 449.851 344.786 438.487C335.467 407.236 307.974 381.667 346.184 352.445C363.891 338.645 401.634 326.334 432.855 311.994C525.583 269.784 473.394 230.957 427.263 191.994C424.933 189.965 422.603 187.8 420.273 185.771C387.655 156.955 355.969 128.95 348.979 99.1873C347.115 92.0171 348.047 84.8468 351.309 77.8119C362.027 51.7015 393.247 27.4851 419.342 1.37468" stroke="url(#paint29_linear_2_236)" stroke-miterlimit="10"/>
<path d="M329.874 534C282.345 515.466 288.403 493.684 295.859 471.903C299.587 461.351 299.586 450.257 296.325 438.893C287.937 407.912 262.775 381.531 302.848 352.986C321.953 339.187 360.163 326.875 391.383 312.67C485.976 270.325 429.127 231.769 380.2 192.4C377.404 190.371 375.074 188.206 372.744 186.177C339.194 157.496 307.974 129.221 300.984 99.3227C299.12 92.0172 300.053 84.9821 302.848 77.8119C313.1 51.7015 344.32 27.35 370.88 1.23964" stroke="url(#paint30_linear_2_236)" stroke-miterlimit="10"/>
<path d="M281.88 534C234.351 515.466 239.942 493.819 247.398 472.174C251.125 461.756 251.125 450.663 248.329 439.299C240.874 408.589 218.041 381.396 259.513 353.527C280.482 339.592 318.691 327.417 350.378 313.347C446.368 270.867 385.326 232.58 333.603 192.806C330.807 190.777 328.477 188.612 325.681 186.583C290.733 158.037 260.911 129.492 253.455 99.5932C251.591 92.2877 252.523 85.1176 255.319 78.0827C265.57 51.837 296.791 27.6204 322.885 1.37468" stroke="url(#paint31_linear_2_236)" stroke-miterlimit="10"/>
<path d="M233.884 534C186.821 515.601 191.48 493.955 198.936 472.444C202.664 462.027 202.198 450.934 199.868 439.705C192.878 409.265 173.307 381.261 216.177 354.068C238.544 339.998 277.219 327.958 308.906 314.023C406.76 271.408 341.058 233.392 286.539 193.212C283.743 191.182 280.947 189.018 278.617 186.989C242.271 158.579 213.381 129.762 205.926 99.8637C204.062 92.5582 204.528 85.388 207.324 78.2178C217.109 51.9721 248.329 27.6206 274.89 1.23964" stroke="url(#paint32_linear_2_236)" stroke-miterlimit="10"/>
<path d="M185.423 534C138.359 515.736 143.019 494.09 150.009 472.715C153.737 462.298 153.27 451.339 150.94 440.111C144.417 409.942 127.642 381.126 172.376 354.609C196.14 340.539 235.282 328.499 267.434 314.7C367.152 271.949 296.79 234.069 239.475 193.618C236.68 191.588 233.884 189.559 231.088 187.394C193.81 159.119 165.852 130.033 157.93 100.134C156.066 92.6934 156.532 85.5232 158.862 78.4883C168.182 52.1073 199.868 27.7557 226.428 1.37468" stroke="url(#paint33_linear_2_236)" stroke-miterlimit="10"/>
<path d="M137.428 534C90.8304 515.872 94.5579 494.361 101.547 472.985C104.809 462.704 104.344 451.745 102.48 440.517C96.8881 410.618 82.9086 380.99 129.04 355.15C154.203 341.08 193.811 329.04 225.963 315.376C327.545 272.625 252.523 234.88 192.412 194.024C189.616 191.994 186.354 189.965 183.559 187.8C144.883 159.661 117.857 130.439 109.935 100.27C108.071 92.8288 108.537 85.6586 110.867 78.6237C119.72 52.1075 151.873 27.8909 178.433 1.37468" stroke="url(#paint34_linear_2_236)" stroke-miterlimit="10"/>
<path d="M89.4324 534C43.301 516.007 46.5626 494.496 53.0863 473.256C56.3481 462.974 55.8824 452.151 54.0185 440.922C49.3588 411.295 37.7091 380.99 85.7044 355.692C112.731 341.486 152.339 329.581 184.491 316.052C287.937 273.166 208.256 235.692 145.349 194.294C142.087 192.265 139.292 190.235 136.03 188.071C96.422 160.066 69.8614 130.574 61.9399 100.405C60.076 92.9643 60.5418 85.7939 62.4057 78.6237C70.7932 52.1075 102.946 27.7557 129.506 1.10417" stroke="url(#paint35_linear_2_236)" stroke-miterlimit="10"/>
<path d="M41.4371 534C-4.69426 516.007 -1.89796 494.631 4.62566 473.526C16.741 436.322 -26.1287 390.19 42.3694 356.368C70.7938 342.163 110.867 330.258 143.485 316.864C248.795 273.843 164.454 236.639 98.7521 194.835C52.1547 165.207 23.7303 133.28 14.8768 100.811C5.09141 65.0949 48.4269 35.0612 82.443 1.37468" stroke="url(#paint36_linear_2_236)" stroke-miterlimit="10"/>
<defs>
<linearGradient id="paint0_linear_2_236" x1="1816.1" y1="267.76" x2="1599.93" y2="267.76" gradientUnits="userSpaceOnUse">
<stop stop-color="white"/>
<stop offset="1"/>
</linearGradient>
<linearGradient id="paint1_linear_2_236" x1="1768.01" y1="267.76" x2="1556.99" y2="267.76" gradientUnits="userSpaceOnUse">
<stop stop-color="white"/>
<stop offset="1"/>
</linearGradient>
<linearGradient id="paint2_linear_2_236" x1="1719.92" y1="267.76" x2="1513.99" y2="267.76" gradientUnits="userSpaceOnUse">
<stop stop-color="white"/>
<stop offset="1"/>
</linearGradient>
<linearGradient id="paint3_linear_2_236" x1="1671.82" y1="267.76" x2="1470.95" y2="267.76" gradientUnits="userSpaceOnUse">
<stop stop-color="white"/>
<stop offset="1"/>
</linearGradient>
<linearGradient id="paint4_linear_2_236" x1="1623.73" y1="267.76" x2="1427.88" y2="267.76" gradientUnits="userSpaceOnUse">
<stop stop-color="white"/>
<stop offset="1"/>
</linearGradient>
<linearGradient id="paint5_linear_2_236" x1="1575.64" y1="267.76" x2="1384.77" y2="267.76" gradientUnits="userSpaceOnUse">
<stop stop-color="white"/>
<stop offset="1"/>
</linearGradient>
<linearGradient id="paint6_linear_2_236" x1="1527.54" y1="267.76" x2="1341.61" y2="267.76" gradientUnits="userSpaceOnUse">
<stop stop-color="white"/>
<stop offset="1"/>
</linearGradient>
<linearGradient id="paint7_linear_2_236" x1="1479.45" y1="267.76" x2="1298.42" y2="267.76" gradientUnits="userSpaceOnUse">
<stop stop-color="white"/>
<stop offset="1"/>
</linearGradient>
<linearGradient id="paint8_linear_2_236" x1="1431.36" y1="267.76" x2="1255.2" y2="267.76" gradientUnits="userSpaceOnUse">
<stop stop-color="white"/>
<stop offset="1"/>
</linearGradient>
<linearGradient id="paint9_linear_2_236" x1="1383.27" y1="267.76" x2="1211.93" y2="267.76" gradientUnits="userSpaceOnUse">
<stop stop-color="white"/>
<stop offset="1"/>
</linearGradient>
<linearGradient id="paint10_linear_2_236" x1="1335.17" y1="267.76" x2="1168.63" y2="267.76" gradientUnits="userSpaceOnUse">
<stop stop-color="white"/>
<stop offset="1"/>
</linearGradient>
<linearGradient id="paint11_linear_2_236" x1="1287.08" y1="267.76" x2="1125.29" y2="267.76" gradientUnits="userSpaceOnUse">
<stop stop-color="white"/>
<stop offset="1"/>
</linearGradient>
<linearGradient id="paint12_linear_2_236" x1="1238.99" y1="267.76" x2="1081.91" y2="267.76" gradientUnits="userSpaceOnUse">
<stop stop-color="white"/>
<stop offset="1"/>
</linearGradient>
<linearGradient id="paint13_linear_2_236" x1="1190.89" y1="267.76" x2="1038.44" y2="267.76" gradientUnits="userSpaceOnUse">
<stop stop-color="white"/>
<stop offset="1"/>
</linearGradient>
<linearGradient id="paint14_linear_2_236" x1="1142.8" y1="267.76" x2="994.764" y2="267.76" gradientUnits="userSpaceOnUse">
<stop stop-color="white"/>
<stop offset="1"/>
</linearGradient>
<linearGradient id="paint15_linear_2_236" x1="1094.71" y1="267.76" x2="950.916" y2="267.76" gradientUnits="userSpaceOnUse">
<stop stop-color="white"/>
<stop offset="1"/>
</linearGradient>
<linearGradient id="paint16_linear_2_236" x1="1046.61" y1="267.76" x2="906.918" y2="267.76" gradientUnits="userSpaceOnUse">
<stop stop-color="white"/>
<stop offset="1"/>
</linearGradient>
<linearGradient id="paint17_linear_2_236" x1="1000.11" y1="267.76" x2="862.785" y2="267.76" gradientUnits="userSpaceOnUse">
<stop stop-color="white"/>
<stop offset="1"/>
</linearGradient>
<linearGradient id="paint18_linear_2_236" x1="955.858" y1="267.76" x2="818.53" y2="267.76" gradientUnits="userSpaceOnUse">
<stop stop-color="white"/>
<stop offset="1"/>
</linearGradient>
<linearGradient id="paint19_linear_2_236" x1="911.992" y1="267.76" x2="774.162" y2="267.76" gradientUnits="userSpaceOnUse">
<stop stop-color="white"/>
<stop offset="1"/>
</linearGradient>
<linearGradient id="paint20_linear_2_236" x1="868.471" y1="267.76" x2="729.687" y2="267.76" gradientUnits="userSpaceOnUse">
<stop stop-color="white"/>
<stop offset="1"/>
</linearGradient>
<linearGradient id="paint21_linear_2_236" x1="825.258" y1="267.76" x2="685.109" y2="267.76" gradientUnits="userSpaceOnUse">
<stop stop-color="white"/>
<stop offset="1"/>
</linearGradient>
<linearGradient id="paint22_linear_2_236" x1="782.306" y1="267.76" x2="640.428" y2="267.76" gradientUnits="userSpaceOnUse">
<stop stop-color="white"/>
<stop offset="1"/>
</linearGradient>
<linearGradient id="paint23_linear_2_236" x1="739.587" y1="267.76" x2="595.645" y2="267.76" gradientUnits="userSpaceOnUse">
<stop stop-color="white"/>
<stop offset="1"/>
</linearGradient>
<linearGradient id="paint24_linear_2_236" x1="697.064" y1="267.76" x2="550.753" y2="267.76" gradientUnits="userSpaceOnUse">
<stop stop-color="white"/>
<stop offset="1"/>
</linearGradient>
<linearGradient id="paint25_linear_2_236" x1="654.716" y1="267.76" x2="505.752" y2="267.76" gradientUnits="userSpaceOnUse">
<stop stop-color="white"/>
<stop offset="1"/>
</linearGradient>
<linearGradient id="paint26_linear_2_236" x1="612.516" y1="267.76" x2="460.63" y2="267.76" gradientUnits="userSpaceOnUse">
<stop stop-color="white"/>
<stop offset="1"/>
</linearGradient>
<linearGradient id="paint27_linear_2_236" x1="570.447" y1="267.76" x2="415.38" y2="267.76" gradientUnits="userSpaceOnUse">
<stop stop-color="white"/>
<stop offset="1"/>
</linearGradient>
<linearGradient id="paint28_linear_2_236" x1="528.492" y1="267.76" x2="369.991" y2="267.76" gradientUnits="userSpaceOnUse">
<stop stop-color="white"/>
<stop offset="1"/>
</linearGradient>
<linearGradient id="paint29_linear_2_236" x1="486.636" y1="267.76" x2="324.449" y2="267.76" gradientUnits="userSpaceOnUse">
<stop stop-color="white"/>
<stop offset="1"/>
</linearGradient>
<linearGradient id="paint30_linear_2_236" x1="444.869" y1="267.76" x2="278.742" y2="267.76" gradientUnits="userSpaceOnUse">
<stop stop-color="white"/>
<stop offset="1"/>
</linearGradient>
<linearGradient id="paint31_linear_2_236" x1="403.181" y1="267.76" x2="232.851" y2="267.76" gradientUnits="userSpaceOnUse">
<stop stop-color="white"/>
<stop offset="1"/>
</linearGradient>
<linearGradient id="paint32_linear_2_236" x1="361.563" y1="267.76" x2="186.691" y2="267.76" gradientUnits="userSpaceOnUse">
<stop stop-color="white"/>
<stop offset="1"/>
</linearGradient>
<linearGradient id="paint33_linear_2_236" x1="320.006" y1="267.76" x2="140.395" y2="267.76" gradientUnits="userSpaceOnUse">
<stop stop-color="white"/>
<stop offset="1"/>
</linearGradient>
<linearGradient id="paint34_linear_2_236" x1="278.507" y1="267.76" x2="93.8699" y2="267.76" gradientUnits="userSpaceOnUse">
<stop stop-color="white"/>
<stop offset="1"/>
</linearGradient>
<linearGradient id="paint35_linear_2_236" x1="237.155" y1="267.76" x2="46.89" y2="267.76" gradientUnits="userSpaceOnUse">
<stop stop-color="white"/>
<stop offset="1"/>
</linearGradient>
<linearGradient id="paint36_linear_2_236" x1="195.653" y1="267.76" x2="-1.42603" y2="267.76" gradientUnits="userSpaceOnUse">
<stop stop-color="white"/>
<stop offset="1"/>
</linearGradient>
</defs>
</svg>
