<svg width="17" height="18" viewBox="0 0 17 18" fill="none" xmlns="http://www.w3.org/2000/svg">
<path fill-rule="evenodd" clip-rule="evenodd" d="M5.66675 9H4.66675V8H3.66675V2H4.66675V1H5.66675V0H11.6667V1H12.6667V2H13.6667V8H12.6667V9H11.6667V10H5.66675V9ZM6.66675 4H5.66675V6H6.66675V7H7.66675V8H9.66675V7H10.6667V6H11.6667V4H10.6667V3H9.66675V2H7.66675V3H6.66675V4ZM15.6667 12V13H16.6667V18H14.6667V15H13.6667V14H12.6667V13H4.66675V14H3.66675V15H2.66675V18H0.666748V13H1.66675V12H2.66675V11H14.6667V12H15.6667Z" fill="white"/>
</svg>
