<svg width="25" height="24" viewBox="0 0 25 24" fill="none" xmlns="http://www.w3.org/2000/svg">
<path fill-rule="evenodd" clip-rule="evenodd" d="M6.66675 2H4.66675V9H6.66675V2ZM13.6667 2H11.6667V5H13.6667V2ZM13.6667 7V8H15.6667V10H13.6667V11H11.6667V10H9.66675V8H11.6667V7H13.6667ZM6.66675 12V11H4.66675V12H2.66675V14H4.66675V15H6.66675V14H8.66675V12H6.66675ZM11.6667 13H13.6667V22H11.6667V13ZM6.66675 17H4.66675V22H6.66675V17ZM18.6667 19H20.6667V22H18.6667V19ZM20.6667 2H18.6667V11H20.6667V2ZM20.6667 13V14H22.6667V16H20.6667V17H18.6667V16H16.6667V14H18.6667V13H20.6667Z" fill="black"/>
</svg>
