<svg width="62" height="24" viewBox="0 0 62 24" fill="none" xmlns="http://www.w3.org/2000/svg">
<path d="M36 12.0005V13.0005H34V15.0005H32V3.00049H30V15.0005H28V13.0005H26V12.0005H24V15.0005H26V17.0005H28V19.0005H29V20.0005H30V21.0005H32V20.0005H33V19.0005H34V17.0005H36V15.0005H38V12.0005H36Z" fill="white"/>
<path d="M55 12V13H53V15H51V3H49V15H47V13H45V12H43V15H45V17H47V19H48V20H49V21H51V20H52V19H53V17H55V15H57V12H55Z" fill="white"/>
<path d="M17 12.0005V13.0005H15V15.0005H13V3.00049H11V15.0005H9V13.0005H7V12.0005H5V15.0005H7V17.0005H9V19.0005H10V20.0005H11V21.0005H13V20.0005H14V19.0005H15V17.0005H17V15.0005H19V12.0005H17Z" fill="white"/>
</svg>
