<svg width="512" height="271" viewBox="0 0 512 271" fill="none" xmlns="http://www.w3.org/2000/svg">
<g filter="url(#filter0_d_18_72558)">
<path d="M8 8H488V251H8V8Z" fill="#E61E28" shape-rendering="crispEdges"/>
<rect width="480" height="46" transform="translate(8 8)" fill="black"/>
<path d="M24 31C24 27.134 27.134 24 31 24C34.866 24 38 27.134 38 31C38 34.866 34.866 38 31 38C27.134 38 24 34.866 24 31Z" stroke="white" stroke-width="2"/>
<path d="M46 31C46 27.134 49.134 24 53 24C56.866 24 60 27.134 60 31C60 34.866 56.866 38 53 38C49.134 38 46 34.866 46 31Z" stroke="white" stroke-width="2"/>
<path d="M68 31C68 27.134 71.134 24 75 24C78.866 24 82 27.134 82 31C82 34.866 78.866 38 75 38C71.134 38 68 34.866 68 31Z" stroke="white" stroke-width="2"/>
<path d="M179.159 23.248H184.847C186.287 23.248 187.415 23.64 188.231 24.424C189.047 25.208 189.455 26.256 189.455 27.568C189.455 28.576 189.207 29.368 188.711 29.944C188.231 30.52 187.607 30.928 186.839 31.168V31.24C187.783 31.464 188.559 31.888 189.167 32.512C189.775 33.12 190.079 34.008 190.079 35.176C190.079 35.848 189.967 36.48 189.743 37.072C189.519 37.664 189.199 38.176 188.783 38.608C188.383 39.04 187.903 39.384 187.343 39.64C186.799 39.88 186.207 40 185.567 40H179.159V23.248ZM184.967 38.248C185.895 38.248 186.623 38.04 187.151 37.624C187.679 37.208 187.943 36.568 187.943 35.704V34.72C187.943 33.872 187.679 33.24 187.151 32.824C186.623 32.392 185.895 32.176 184.967 32.176H181.175V38.248H184.967ZM184.631 30.52C185.479 30.52 186.143 30.336 186.623 29.968C187.103 29.584 187.343 29.008 187.343 28.24V27.304C187.343 26.536 187.103 25.96 186.623 25.576C186.143 25.192 185.479 25 184.631 25H181.175V30.52H184.631ZM195.614 40H193.598V23.248H199.694C201.246 23.248 202.43 23.672 203.246 24.52C204.062 25.368 204.47 26.552 204.47 28.072C204.47 29.432 204.118 30.52 203.414 31.336C202.71 32.152 201.686 32.624 200.342 32.752L204.614 40H202.358L198.278 32.848H195.614V40ZM199.646 31.144C200.494 31.144 201.15 30.936 201.614 30.52C202.094 30.088 202.334 29.48 202.334 28.696V27.448C202.334 26.664 202.094 26.064 201.614 25.648C201.15 25.216 200.494 25 199.646 25H195.614V31.144H199.646ZM207.844 40V38.392H212.02V24.856H207.844V23.248H218.212V24.856H214.036V38.392H218.212V40H207.844ZM224.131 25.816H223.963V40H222.139V23.248H224.995L230.707 37.288H230.875V23.248H232.699V40H229.843L224.131 25.816ZM245.265 37.768H245.145C245.001 38.088 244.833 38.4 244.641 38.704C244.449 39.008 244.201 39.28 243.897 39.52C243.609 39.744 243.257 39.928 242.841 40.072C242.425 40.216 241.929 40.288 241.353 40.288C239.529 40.288 238.169 39.552 237.273 38.08C236.393 36.608 235.953 34.496 235.953 31.744C235.953 28.864 236.441 26.68 237.417 25.192C238.393 23.704 239.897 22.96 241.929 22.96C242.713 22.96 243.393 23.064 243.969 23.272C244.545 23.48 245.033 23.76 245.433 24.112C245.849 24.464 246.193 24.864 246.465 25.312C246.737 25.744 246.961 26.184 247.137 26.632L245.409 27.424C245.265 27.056 245.097 26.712 244.905 26.392C244.729 26.056 244.505 25.768 244.233 25.528C243.977 25.272 243.665 25.072 243.297 24.928C242.929 24.784 242.497 24.712 242.001 24.712C240.657 24.712 239.665 25.216 239.025 26.224C238.401 27.232 238.089 28.576 238.089 30.256V32.848C238.089 33.696 238.153 34.472 238.281 35.176C238.409 35.864 238.617 36.464 238.905 36.976C239.209 37.488 239.593 37.888 240.057 38.176C240.537 38.448 241.121 38.584 241.809 38.584C242.897 38.584 243.745 38.256 244.353 37.6C244.961 36.944 245.265 36.096 245.265 35.056V33.328H241.737V31.72H247.137V40H245.265V37.768ZM265.671 23.248H270.351C272.399 23.248 273.927 23.952 274.935 25.36C275.943 26.768 276.447 28.856 276.447 31.624C276.447 34.392 275.943 36.48 274.935 37.888C273.927 39.296 272.399 40 270.351 40H265.671V23.248ZM270.255 38.248C271.599 38.248 272.607 37.784 273.279 36.856C273.967 35.928 274.311 34.616 274.311 32.92V30.328C274.311 28.632 273.967 27.32 273.279 26.392C272.607 25.464 271.599 25 270.255 25H267.687V38.248H270.255ZM289.325 40L287.909 35.224H282.029L280.613 40H278.525L283.661 23.248H286.325L291.461 40H289.325ZM285.077 25.384H284.861L282.509 33.472H287.429L285.077 25.384ZM300.38 25V40H298.364V25H292.772V23.248H305.972V25H300.38ZM318.107 40L316.691 35.224H310.811L309.395 40H307.307L312.443 23.248H315.107L320.243 40H318.107ZM313.859 25.384H313.643L311.291 33.472H316.211L313.859 25.384Z" fill="white"/>
<path fill-rule="evenodd" clip-rule="evenodd" d="M467 25V26H468V40H467V41H453V40H452V22H453V21H463V22H464V23H465V24H466V25H467ZM465 38H466V29H460V23H455V24H454V38H455V39H465V38ZM464 27V26H463V25H462V27H464ZM463 33V31H457V33H463ZM463 36V34H457V36H463Z" fill="white"/>
<path d="M42.4811 112.5V110.582C42.4811 110 42.5841 109.382 42.79 108.729C43.0031 108.068 43.3085 107.433 43.7062 106.822C44.1111 106.204 44.5976 105.668 45.1657 105.213L46.5294 106.321C46.0819 106.96 45.6913 107.628 45.3575 108.324C45.0308 109.013 44.8675 109.751 44.8675 110.54V112.5H42.4811ZM47.9356 112.5V110.582C47.9356 110 48.0386 109.382 48.2446 108.729C48.4577 108.068 48.7631 107.433 49.1608 106.822C49.5656 106.204 50.0521 105.668 50.6203 105.213L51.9839 106.321C51.5365 106.96 51.1459 107.628 50.8121 108.324C50.4854 109.013 50.322 109.751 50.322 110.54V112.5H47.9356ZM53.9069 108.026V105.682H70.2705V108.026H63.4097V127.5H60.7677V108.026H53.9069ZM78.2819 127.841C76.8046 127.841 75.5084 127.489 74.3934 126.786C73.2854 126.083 72.4189 125.099 71.7939 123.835C71.176 122.571 70.8671 121.094 70.8671 119.403C70.8671 117.699 71.176 116.211 71.7939 114.94C72.4189 113.668 73.2854 112.681 74.3934 111.978C75.5084 111.275 76.8046 110.923 78.2819 110.923C79.7591 110.923 81.0518 111.275 82.1597 111.978C83.2748 112.681 84.1412 113.668 84.7591 114.94C85.3841 116.211 85.6966 117.699 85.6966 119.403C85.6966 121.094 85.3841 122.571 84.7591 123.835C84.1412 125.099 83.2748 126.083 82.1597 126.786C81.0518 127.489 79.7591 127.841 78.2819 127.841ZM78.2819 125.582C79.404 125.582 80.3273 125.295 81.0518 124.719C81.7762 124.144 82.3124 123.388 82.6604 122.45C83.0084 121.513 83.1824 120.497 83.1824 119.403C83.1824 118.31 83.0084 117.29 82.6604 116.346C82.3124 115.401 81.7762 114.638 81.0518 114.055C80.3273 113.473 79.404 113.182 78.2819 113.182C77.1597 113.182 76.2364 113.473 75.512 114.055C74.7876 114.638 74.2513 115.401 73.9033 116.346C73.5553 117.29 73.3813 118.31 73.3813 119.403C73.3813 120.497 73.5553 121.513 73.9033 122.45C74.2513 123.388 74.7876 124.144 75.512 124.719C76.2364 125.295 77.1597 125.582 78.2819 125.582ZM109.563 114.801L107.304 115.44C107.162 115.064 106.953 114.698 106.676 114.343C106.406 113.981 106.037 113.683 105.568 113.448C105.099 113.214 104.499 113.097 103.767 113.097C102.766 113.097 101.932 113.327 101.264 113.789C100.603 114.244 100.273 114.822 100.273 115.526C100.273 116.151 100.5 116.644 100.955 117.006C101.41 117.369 102.12 117.67 103.086 117.912L105.515 118.509C106.978 118.864 108.068 119.407 108.785 120.138C109.503 120.863 109.861 121.797 109.861 122.94C109.861 123.878 109.591 124.716 109.052 125.455C108.519 126.193 107.773 126.776 106.814 127.202C105.856 127.628 104.741 127.841 103.469 127.841C101.8 127.841 100.419 127.479 99.325 126.754C98.2313 126.03 97.5388 124.972 97.2476 123.58L99.634 122.983C99.8612 123.864 100.291 124.524 100.923 124.964C101.562 125.405 102.397 125.625 103.427 125.625C104.598 125.625 105.529 125.376 106.218 124.879C106.914 124.375 107.262 123.771 107.262 123.068C107.262 122.5 107.063 122.024 106.665 121.641C106.267 121.25 105.657 120.959 104.833 120.767L102.106 120.128C100.607 119.773 99.5061 119.222 98.803 118.477C98.107 117.724 97.759 116.783 97.759 115.653C97.759 114.73 98.0182 113.913 98.5367 113.203C99.0622 112.493 99.776 111.935 100.678 111.531C101.587 111.126 102.617 110.923 103.767 110.923C105.387 110.923 106.658 111.278 107.581 111.989C108.512 112.699 109.172 113.636 109.563 114.801ZM118.461 127.884C117.424 127.884 116.483 127.688 115.638 127.298C114.793 126.9 114.122 126.328 113.625 125.582C113.127 124.83 112.879 123.92 112.879 122.855C112.879 121.918 113.063 121.158 113.433 120.575C113.802 119.986 114.296 119.524 114.914 119.19C115.532 118.857 116.213 118.608 116.959 118.445C117.712 118.274 118.468 118.139 119.228 118.04C120.223 117.912 121.029 117.816 121.647 117.752C122.272 117.681 122.726 117.564 123.01 117.401C123.301 117.237 123.447 116.953 123.447 116.548V116.463C123.447 115.412 123.159 114.595 122.584 114.013C122.016 113.43 121.153 113.139 119.995 113.139C118.795 113.139 117.854 113.402 117.172 113.928C116.49 114.453 116.011 115.014 115.734 115.611L113.348 114.759C113.774 113.764 114.342 112.99 115.052 112.436C115.769 111.875 116.551 111.484 117.396 111.264C118.248 111.037 119.086 110.923 119.91 110.923C120.436 110.923 121.039 110.987 121.721 111.115C122.41 111.236 123.074 111.488 123.713 111.871C124.36 112.255 124.896 112.834 125.322 113.608C125.748 114.382 125.961 115.419 125.961 116.719V127.5H123.447V125.284H123.319C123.149 125.639 122.865 126.019 122.467 126.424C122.069 126.829 121.54 127.173 120.88 127.457C120.219 127.741 119.413 127.884 118.461 127.884ZM118.845 125.625C119.839 125.625 120.677 125.43 121.359 125.039C122.048 124.648 122.566 124.144 122.914 123.526C123.269 122.908 123.447 122.259 123.447 121.577V119.276C123.34 119.403 123.106 119.521 122.744 119.627C122.389 119.727 121.977 119.815 121.508 119.893C121.046 119.964 120.595 120.028 120.155 120.085C119.722 120.135 119.37 120.178 119.1 120.213C118.447 120.298 117.836 120.437 117.268 120.629C116.707 120.813 116.252 121.094 115.904 121.47C115.563 121.839 115.393 122.344 115.393 122.983C115.393 123.857 115.716 124.517 116.362 124.964C117.016 125.405 117.843 125.625 118.845 125.625ZM131.584 133.636C131.157 133.636 130.777 133.601 130.444 133.53C130.11 133.466 129.879 133.402 129.751 133.338L130.39 131.122C131.001 131.278 131.541 131.335 132.01 131.293C132.478 131.25 132.894 131.04 133.256 130.664C133.625 130.295 133.963 129.695 134.268 128.864L134.737 127.585L128.686 111.136H131.413L135.93 124.176H136.101L140.618 111.136H143.345L136.399 129.886C136.086 130.732 135.699 131.431 135.238 131.985C134.776 132.546 134.24 132.962 133.629 133.232C133.025 133.501 132.343 133.636 131.584 133.636ZM162.217 111.136V113.267H153.737V111.136H162.217ZM156.209 107.216H158.723V122.812C158.723 123.523 158.826 124.055 159.032 124.411C159.245 124.759 159.515 124.993 159.842 125.114C160.176 125.227 160.527 125.284 160.896 125.284C161.173 125.284 161.401 125.27 161.578 125.241C161.756 125.206 161.898 125.178 162.004 125.156L162.516 127.415C162.345 127.479 162.107 127.543 161.802 127.607C161.497 127.678 161.109 127.713 160.641 127.713C159.93 127.713 159.234 127.56 158.553 127.255C157.878 126.95 157.317 126.484 156.869 125.859C156.429 125.234 156.209 124.446 156.209 123.494V107.216ZM168.865 117.656V127.5H166.351V105.682H168.865V113.693H169.078C169.462 112.848 170.037 112.177 170.804 111.68C171.578 111.175 172.608 110.923 173.894 110.923C175.009 110.923 175.985 111.147 176.823 111.594C177.661 112.035 178.311 112.713 178.773 113.629C179.242 114.538 179.476 115.696 179.476 117.102V127.5H176.962V117.273C176.962 115.973 176.624 114.968 175.95 114.258C175.282 113.54 174.355 113.182 173.169 113.182C172.345 113.182 171.607 113.356 170.953 113.704C170.307 114.052 169.796 114.56 169.419 115.227C169.05 115.895 168.865 116.705 168.865 117.656ZM188.891 127.884C187.854 127.884 186.913 127.688 186.068 127.298C185.223 126.9 184.551 126.328 184.054 125.582C183.557 124.83 183.309 123.92 183.309 122.855C183.309 121.918 183.493 121.158 183.862 120.575C184.232 119.986 184.725 119.524 185.343 119.19C185.961 118.857 186.643 118.608 187.389 118.445C188.142 118.274 188.898 118.139 189.658 118.04C190.652 117.912 191.458 117.816 192.076 117.752C192.701 117.681 193.156 117.564 193.44 117.401C193.731 117.237 193.877 116.953 193.877 116.548V116.463C193.877 115.412 193.589 114.595 193.014 114.013C192.446 113.43 191.583 113.139 190.425 113.139C189.225 113.139 188.284 113.402 187.602 113.928C186.92 114.453 186.441 115.014 186.164 115.611L183.777 114.759C184.203 113.764 184.772 112.99 185.482 112.436C186.199 111.875 186.98 111.484 187.826 111.264C188.678 111.037 189.516 110.923 190.34 110.923C190.865 110.923 191.469 110.987 192.151 111.115C192.84 111.236 193.504 111.488 194.143 111.871C194.789 112.255 195.326 112.834 195.752 113.608C196.178 114.382 196.391 115.419 196.391 116.719V127.5H193.877V125.284H193.749C193.578 125.639 193.294 126.019 192.897 126.424C192.499 126.829 191.97 127.173 191.309 127.457C190.649 127.741 189.843 127.884 188.891 127.884ZM189.274 125.625C190.269 125.625 191.107 125.43 191.789 125.039C192.478 124.648 192.996 124.144 193.344 123.526C193.699 122.908 193.877 122.259 193.877 121.577V119.276C193.77 119.403 193.536 119.521 193.174 119.627C192.818 119.727 192.407 119.815 191.938 119.893C191.476 119.964 191.025 120.028 190.585 120.085C190.152 120.135 189.8 120.178 189.53 120.213C188.877 120.298 188.266 120.437 187.698 120.629C187.137 120.813 186.682 121.094 186.334 121.47C185.993 121.839 185.823 122.344 185.823 122.983C185.823 123.857 186.146 124.517 186.792 124.964C187.446 125.405 188.273 125.625 189.274 125.625ZM208.096 111.136V113.267H199.616V111.136H208.096ZM202.088 107.216H204.602V122.812C204.602 123.523 204.705 124.055 204.911 124.411C205.124 124.759 205.394 124.993 205.721 125.114C206.054 125.227 206.406 125.284 206.775 125.284C207.052 125.284 207.28 125.27 207.457 125.241C207.635 125.206 207.777 125.178 207.883 125.156L208.395 127.415C208.224 127.479 207.986 127.543 207.681 127.607C207.375 127.678 206.988 127.713 206.52 127.713C205.809 127.713 205.113 127.56 204.432 127.255C203.757 126.95 203.196 126.484 202.748 125.859C202.308 125.234 202.088 124.446 202.088 123.494V107.216ZM225.131 127.884C224.094 127.884 223.153 127.688 222.308 127.298C221.463 126.9 220.792 126.328 220.294 125.582C219.797 124.83 219.549 123.92 219.549 122.855C219.549 121.918 219.733 121.158 220.103 120.575C220.472 119.986 220.966 119.524 221.584 119.19C222.201 118.857 222.883 118.608 223.629 118.445C224.382 118.274 225.138 118.139 225.898 118.04C226.892 117.912 227.699 117.816 228.316 117.752C228.941 117.681 229.396 117.564 229.68 117.401C229.971 117.237 230.117 116.953 230.117 116.548V116.463C230.117 115.412 229.829 114.595 229.254 114.013C228.686 113.43 227.823 113.139 226.665 113.139C225.465 113.139 224.524 113.402 223.842 113.928C223.16 114.453 222.681 115.014 222.404 115.611L220.017 114.759C220.444 113.764 221.012 112.99 221.722 112.436C222.439 111.875 223.221 111.484 224.066 111.264C224.918 111.037 225.756 110.923 226.58 110.923C227.106 110.923 227.709 110.987 228.391 111.115C229.08 111.236 229.744 111.488 230.383 111.871C231.03 112.255 231.566 112.834 231.992 113.608C232.418 114.382 232.631 115.419 232.631 116.719V127.5H230.117V125.284H229.989C229.819 125.639 229.535 126.019 229.137 126.424C228.739 126.829 228.21 127.173 227.549 127.457C226.889 127.741 226.083 127.884 225.131 127.884ZM225.515 125.625C226.509 125.625 227.347 125.43 228.029 125.039C228.718 124.648 229.236 124.144 229.584 123.526C229.939 122.908 230.117 122.259 230.117 121.577V119.276C230.01 119.403 229.776 119.521 229.414 119.627C229.059 119.727 228.647 119.815 228.178 119.893C227.716 119.964 227.265 120.028 226.825 120.085C226.392 120.135 226.04 120.178 225.77 120.213C225.117 120.298 224.506 120.437 223.938 120.629C223.377 120.813 222.922 121.094 222.574 121.47C222.233 121.839 222.063 122.344 222.063 122.983C222.063 123.857 222.386 124.517 223.032 124.964C223.686 125.405 224.513 125.625 225.515 125.625ZM239.734 105.682V127.5H237.22V105.682H239.734ZM246.853 105.682V127.5H244.339V105.682H246.853ZM266.075 127.841C264.711 127.841 263.507 127.496 262.463 126.808C261.419 126.112 260.603 125.131 260.013 123.867C259.424 122.596 259.129 121.094 259.129 119.361C259.129 117.642 259.424 116.151 260.013 114.886C260.603 113.622 261.423 112.646 262.474 111.957C263.525 111.268 264.74 110.923 266.117 110.923C267.183 110.923 268.024 111.101 268.642 111.456C269.267 111.804 269.743 112.202 270.07 112.649C270.404 113.089 270.663 113.452 270.848 113.736H271.061V105.682H273.575V127.5H271.146V124.986H270.848C270.663 125.284 270.4 125.661 270.059 126.115C269.718 126.562 269.232 126.964 268.6 127.319C267.968 127.667 267.126 127.841 266.075 127.841ZM266.416 125.582C267.424 125.582 268.277 125.32 268.973 124.794C269.669 124.261 270.198 123.526 270.56 122.589C270.922 121.644 271.103 120.554 271.103 119.318C271.103 118.097 270.926 117.028 270.571 116.112C270.215 115.188 269.69 114.471 268.994 113.96C268.298 113.441 267.438 113.182 266.416 113.182C265.35 113.182 264.463 113.455 263.752 114.002C263.049 114.542 262.52 115.277 262.165 116.207C261.817 117.131 261.643 118.168 261.643 119.318C261.643 120.483 261.821 121.541 262.176 122.493C262.538 123.437 263.071 124.19 263.774 124.751C264.484 125.305 265.365 125.582 266.416 125.582ZM283.344 127.884C282.307 127.884 281.366 127.688 280.521 127.298C279.676 126.9 279.005 126.328 278.507 125.582C278.01 124.83 277.762 123.92 277.762 122.855C277.762 121.918 277.946 121.158 278.316 120.575C278.685 119.986 279.179 119.524 279.796 119.19C280.414 118.857 281.096 118.608 281.842 118.445C282.595 118.274 283.351 118.139 284.111 118.04C285.105 117.912 285.911 117.816 286.529 117.752C287.154 117.681 287.609 117.564 287.893 117.401C288.184 117.237 288.33 116.953 288.33 116.548V116.463C288.33 115.412 288.042 114.595 287.467 114.013C286.899 113.43 286.036 113.139 284.878 113.139C283.678 113.139 282.737 113.402 282.055 113.928C281.373 114.453 280.894 115.014 280.617 115.611L278.23 114.759C278.657 113.764 279.225 112.99 279.935 112.436C280.652 111.875 281.434 111.484 282.279 111.264C283.131 111.037 283.969 110.923 284.793 110.923C285.318 110.923 285.922 110.987 286.604 111.115C287.293 111.236 287.957 111.488 288.596 111.871C289.242 112.255 289.779 112.834 290.205 113.608C290.631 114.382 290.844 115.419 290.844 116.719V127.5H288.33V125.284H288.202C288.032 125.639 287.747 126.019 287.35 126.424C286.952 126.829 286.423 127.173 285.762 127.457C285.102 127.741 284.296 127.884 283.344 127.884ZM283.728 125.625C284.722 125.625 285.56 125.43 286.242 125.039C286.931 124.648 287.449 124.144 287.797 123.526C288.152 122.908 288.33 122.259 288.33 121.577V119.276C288.223 119.403 287.989 119.521 287.627 119.627C287.272 119.727 286.86 119.815 286.391 119.893C285.929 119.964 285.478 120.028 285.038 120.085C284.605 120.135 284.253 120.178 283.983 120.213C283.33 120.298 282.719 120.437 282.151 120.629C281.59 120.813 281.135 121.094 280.787 121.47C280.446 121.839 280.276 122.344 280.276 122.983C280.276 123.857 280.599 124.517 281.245 124.964C281.899 125.405 282.726 125.625 283.728 125.625ZM302.549 111.136V113.267H294.069V111.136H302.549ZM296.541 107.216H299.055V122.812C299.055 123.523 299.158 124.055 299.364 124.411C299.577 124.759 299.847 124.993 300.174 125.114C300.508 125.227 300.859 125.284 301.228 125.284C301.505 125.284 301.733 125.27 301.91 125.241C302.088 125.206 302.23 125.178 302.336 125.156L302.848 127.415C302.677 127.479 302.439 127.543 302.134 127.607C301.829 127.678 301.441 127.713 300.973 127.713C300.263 127.713 299.566 127.56 298.885 127.255C298.21 126.95 297.649 126.484 297.201 125.859C296.761 125.234 296.541 124.446 296.541 123.494V107.216ZM311.147 127.884C310.11 127.884 309.169 127.688 308.324 127.298C307.478 126.9 306.807 126.328 306.31 125.582C305.813 124.83 305.564 123.92 305.564 122.855C305.564 121.918 305.749 121.158 306.118 120.575C306.488 119.986 306.981 119.524 307.599 119.19C308.217 118.857 308.899 118.608 309.645 118.445C310.397 118.274 311.154 118.139 311.914 118.04C312.908 117.912 313.714 117.816 314.332 117.752C314.957 117.681 315.412 117.564 315.696 117.401C315.987 117.237 316.133 116.953 316.133 116.548V116.463C316.133 115.412 315.845 114.595 315.27 114.013C314.701 113.43 313.839 113.139 312.681 113.139C311.481 113.139 310.54 113.402 309.858 113.928C309.176 114.453 308.696 115.014 308.419 115.611L306.033 114.759C306.459 113.764 307.027 112.99 307.738 112.436C308.455 111.875 309.236 111.484 310.081 111.264C310.934 111.037 311.772 110.923 312.596 110.923C313.121 110.923 313.725 110.987 314.407 111.115C315.096 111.236 315.76 111.488 316.399 111.871C317.045 112.255 317.581 112.834 318.008 113.608C318.434 114.382 318.647 115.419 318.647 116.719V127.5H316.133V125.284H316.005C315.834 125.639 315.55 126.019 315.152 126.424C314.755 126.829 314.226 127.173 313.565 127.457C312.905 127.741 312.098 127.884 311.147 127.884ZM311.53 125.625C312.525 125.625 313.363 125.43 314.044 125.039C314.733 124.648 315.252 124.144 315.6 123.526C315.955 122.908 316.133 122.259 316.133 121.577V119.276C316.026 119.403 315.792 119.521 315.429 119.627C315.074 119.727 314.662 119.815 314.194 119.893C313.732 119.964 313.281 120.028 312.841 120.085C312.407 120.135 312.056 120.178 311.786 120.213C311.133 120.298 310.522 120.437 309.954 120.629C309.392 120.813 308.938 121.094 308.59 121.47C308.249 121.839 308.079 122.344 308.079 122.983C308.079 123.857 308.402 124.517 309.048 124.964C309.701 125.405 310.529 125.625 311.53 125.625ZM331.673 127.5V111.136H334.187V127.5H331.673ZM332.952 108.409C332.462 108.409 332.039 108.242 331.684 107.908C331.336 107.575 331.162 107.173 331.162 106.705C331.162 106.236 331.336 105.835 331.684 105.501C332.039 105.167 332.462 105 332.952 105C333.442 105 333.861 105.167 334.209 105.501C334.564 105.835 334.741 106.236 334.741 106.705C334.741 107.173 334.564 107.575 334.209 107.908C333.861 108.242 333.442 108.409 332.952 108.409ZM350.383 114.801L348.125 115.44C347.983 115.064 347.773 114.698 347.496 114.343C347.226 113.981 346.857 113.683 346.388 113.448C345.919 113.214 345.319 113.097 344.588 113.097C343.586 113.097 342.752 113.327 342.084 113.789C341.424 114.244 341.093 114.822 341.093 115.526C341.093 116.151 341.321 116.644 341.775 117.006C342.23 117.369 342.94 117.67 343.906 117.912L346.335 118.509C347.798 118.864 348.888 119.407 349.606 120.138C350.323 120.863 350.682 121.797 350.682 122.94C350.682 123.878 350.412 124.716 349.872 125.455C349.339 126.193 348.593 126.776 347.635 127.202C346.676 127.628 345.561 127.841 344.29 127.841C342.62 127.841 341.239 127.479 340.145 126.754C339.052 126.03 338.359 124.972 338.068 123.58L340.454 122.983C340.682 123.864 341.111 124.524 341.743 124.964C342.383 125.405 343.217 125.625 344.247 125.625C345.419 125.625 346.349 125.376 347.038 124.879C347.734 124.375 348.082 123.771 348.082 123.068C348.082 122.5 347.883 122.024 347.486 121.641C347.088 121.25 346.477 120.959 345.653 120.767L342.926 120.128C341.427 119.773 340.326 119.222 339.623 118.477C338.927 117.724 338.579 116.783 338.579 115.653C338.579 114.73 338.839 113.913 339.357 113.203C339.883 112.493 340.596 111.935 341.498 111.531C342.407 111.126 343.437 110.923 344.588 110.923C346.207 110.923 347.478 111.278 348.402 111.989C349.332 112.699 349.993 113.636 350.383 114.801ZM362.904 127.5V111.136H365.418V127.5H362.904ZM364.182 108.409C363.692 108.409 363.269 108.242 362.914 107.908C362.566 107.575 362.392 107.173 362.392 106.705C362.392 106.236 362.566 105.835 362.914 105.501C363.269 105.167 363.692 105 364.182 105C364.672 105 365.091 105.167 365.439 105.501C365.794 105.835 365.972 106.236 365.972 106.705C365.972 107.173 365.794 107.575 365.439 107.908C365.091 108.242 364.672 108.409 364.182 108.409ZM372.537 117.656V127.5H370.023V111.136H372.452V113.693H372.665C373.048 112.862 373.631 112.195 374.412 111.69C375.193 111.179 376.202 110.923 377.438 110.923C378.546 110.923 379.515 111.151 380.346 111.605C381.177 112.053 381.823 112.734 382.285 113.651C382.747 114.56 382.977 115.71 382.977 117.102V127.5H380.463V117.273C380.463 115.987 380.129 114.986 379.462 114.268C378.794 113.544 377.878 113.182 376.713 113.182C375.911 113.182 375.193 113.356 374.561 113.704C373.936 114.052 373.443 114.56 373.08 115.227C372.718 115.895 372.537 116.705 372.537 117.656ZM399.163 114.801L396.904 115.44C396.762 115.064 396.552 114.698 396.275 114.343C396.006 113.981 395.636 113.683 395.168 113.448C394.699 113.214 394.099 113.097 393.367 113.097C392.366 113.097 391.531 113.327 390.864 113.789C390.203 114.244 389.873 114.822 389.873 115.526C389.873 116.151 390.1 116.644 390.555 117.006C391.009 117.369 391.719 117.67 392.685 117.912L395.114 118.509C396.577 118.864 397.668 119.407 398.385 120.138C399.102 120.863 399.461 121.797 399.461 122.94C399.461 123.878 399.191 124.716 398.651 125.455C398.119 126.193 397.373 126.776 396.414 127.202C395.455 127.628 394.34 127.841 393.069 127.841C391.4 127.841 390.018 127.479 388.925 126.754C387.831 126.03 387.138 124.972 386.847 123.58L389.234 122.983C389.461 123.864 389.891 124.524 390.523 124.964C391.162 125.405 391.996 125.625 393.026 125.625C394.198 125.625 395.128 125.376 395.817 124.879C396.513 124.375 396.861 123.771 396.861 123.068C396.861 122.5 396.663 122.024 396.265 121.641C395.867 121.25 395.256 120.959 394.432 120.767L391.705 120.128C390.207 119.773 389.106 119.222 388.403 118.477C387.707 117.724 387.359 116.783 387.359 115.653C387.359 114.73 387.618 113.913 388.136 113.203C388.662 112.493 389.376 111.935 390.278 111.531C391.187 111.126 392.217 110.923 393.367 110.923C394.986 110.923 396.258 111.278 397.181 111.989C398.111 112.699 398.772 113.636 399.163 114.801ZM403.245 127.5V111.136H405.76V127.5H403.245ZM404.524 108.409C404.034 108.409 403.611 108.242 403.256 107.908C402.908 107.575 402.734 107.173 402.734 106.705C402.734 106.236 402.908 105.835 403.256 105.501C403.611 105.167 404.034 105 404.524 105C405.014 105 405.433 105.167 405.781 105.501C406.136 105.835 406.314 106.236 406.314 106.705C406.314 107.173 406.136 107.575 405.781 107.908C405.433 108.242 405.014 108.409 404.524 108.409ZM416.97 133.977C415.755 133.977 414.711 133.821 413.838 133.509C412.964 133.203 412.236 132.798 411.654 132.294C411.078 131.797 410.62 131.264 410.279 130.696L412.282 129.29C412.509 129.588 412.797 129.929 413.145 130.312C413.493 130.703 413.969 131.04 414.573 131.325C415.184 131.616 415.983 131.761 416.97 131.761C418.291 131.761 419.381 131.442 420.24 130.803C421.1 130.163 421.529 129.162 421.529 127.798V124.474H421.316C421.132 124.773 420.869 125.142 420.528 125.582C420.194 126.016 419.711 126.403 419.079 126.744C418.454 127.077 417.609 127.244 416.544 127.244C415.223 127.244 414.036 126.932 412.985 126.307C411.941 125.682 411.114 124.773 410.503 123.58C409.899 122.386 409.598 120.937 409.598 119.233C409.598 117.557 409.892 116.097 410.482 114.854C411.071 113.604 411.892 112.638 412.943 111.957C413.994 111.268 415.208 110.923 416.586 110.923C417.652 110.923 418.497 111.101 419.122 111.456C419.754 111.804 420.237 112.202 420.571 112.649C420.911 113.089 421.174 113.452 421.359 113.736H421.615V111.136H424.044V127.969C424.044 129.375 423.724 130.518 423.085 131.399C422.453 132.287 421.6 132.937 420.528 133.349C419.463 133.768 418.277 133.977 416.97 133.977ZM416.884 124.986C417.893 124.986 418.745 124.755 419.441 124.293C420.137 123.832 420.666 123.168 421.029 122.301C421.391 121.435 421.572 120.398 421.572 119.19C421.572 118.011 421.394 116.971 421.039 116.069C420.684 115.167 420.159 114.46 419.463 113.949C418.767 113.437 417.907 113.182 416.884 113.182C415.819 113.182 414.931 113.452 414.221 113.991C413.518 114.531 412.989 115.256 412.634 116.165C412.286 117.074 412.112 118.082 412.112 119.19C412.112 120.327 412.289 121.332 412.644 122.205C413.007 123.072 413.539 123.754 414.242 124.251C414.953 124.741 415.833 124.986 416.884 124.986ZM431.16 117.656V127.5H428.646V105.682H431.16V113.693H431.373C431.757 112.848 432.332 112.177 433.099 111.68C433.873 111.175 434.903 110.923 436.188 110.923C437.304 110.923 438.28 111.147 439.118 111.594C439.956 112.035 440.606 112.713 441.068 113.629C441.536 114.538 441.771 115.696 441.771 117.102V127.5H439.257V117.273C439.257 115.973 438.919 114.968 438.245 114.258C437.577 113.54 436.65 113.182 435.464 113.182C434.64 113.182 433.902 113.356 433.248 113.704C432.602 114.052 432.09 114.56 431.714 115.227C431.345 115.895 431.16 116.705 431.16 117.656ZM453.487 111.136V113.267H445.007V111.136H453.487ZM447.478 107.216H449.993V122.812C449.993 123.523 450.096 124.055 450.302 124.411C450.515 124.759 450.785 124.993 451.111 125.114C451.445 125.227 451.797 125.284 452.166 125.284C452.443 125.284 452.67 125.27 452.848 125.241C453.025 125.206 453.167 125.178 453.274 125.156L453.785 127.415C453.615 127.479 453.377 127.543 453.071 127.607C452.766 127.678 452.379 127.713 451.91 127.713C451.2 127.713 450.504 127.56 449.822 127.255C449.147 126.95 448.586 126.484 448.139 125.859C447.699 125.234 447.478 124.446 447.478 123.494V107.216ZM63.7093 163.5V147.136H66.2235V163.5H63.7093ZM64.9877 144.409C64.4977 144.409 64.0751 144.242 63.72 143.908C63.372 143.575 63.198 143.173 63.198 142.705C63.198 142.236 63.372 141.835 63.72 141.501C64.0751 141.167 64.4977 141 64.9877 141C65.4778 141 65.8968 141.167 66.2449 141.501C66.6 141.835 66.7775 142.236 66.7775 142.705C66.7775 143.173 66.6 143.575 66.2449 143.908C65.8968 144.242 65.4778 144.409 64.9877 144.409ZM82.4194 150.801L80.1609 151.44C80.0188 151.064 79.8093 150.698 79.5323 150.343C79.2624 149.981 78.8931 149.683 78.4244 149.448C77.9556 149.214 77.3555 149.097 76.6239 149.097C75.6225 149.097 74.788 149.327 74.1204 149.789C73.4599 150.244 73.1296 150.822 73.1296 151.526C73.1296 152.151 73.3569 152.644 73.8114 153.006C74.266 153.369 74.9762 153.67 75.9421 153.912L78.3711 154.509C79.8342 154.864 80.9244 155.407 81.6417 156.138C82.359 156.863 82.7177 157.797 82.7177 158.94C82.7177 159.878 82.4478 160.716 81.908 161.455C81.3754 162.193 80.6296 162.776 79.6708 163.202C78.712 163.628 77.5969 163.841 76.3256 163.841C74.6566 163.841 73.2752 163.479 72.1815 162.754C71.0877 162.03 70.3952 160.972 70.104 159.58L72.4904 158.983C72.7177 159.864 73.1474 160.524 73.7795 160.964C74.4187 161.405 75.2532 161.625 76.283 161.625C77.4549 161.625 78.3853 161.376 79.0742 160.879C79.7702 160.375 80.1183 159.771 80.1183 159.068C80.1183 158.5 79.9194 158.024 79.5217 157.641C79.1239 157.25 78.5131 156.959 77.6893 156.767L74.962 156.128C73.4634 155.773 72.3626 155.222 71.6594 154.477C70.9634 153.724 70.6154 152.783 70.6154 151.653C70.6154 150.73 70.8746 149.913 71.3931 149.203C71.9187 148.493 72.6325 147.935 73.5344 147.531C74.4435 147.126 75.4734 146.923 76.6239 146.923C78.2433 146.923 79.5146 147.278 80.4379 147.989C81.3683 148.699 82.0288 149.636 82.4194 150.801ZM102.056 147.136V149.267H93.5762V147.136H102.056ZM96.0478 143.216H98.562V158.812C98.562 159.523 98.665 160.055 98.8709 160.411C99.084 160.759 99.3539 160.993 99.6806 161.114C100.014 161.227 100.366 161.284 100.735 161.284C101.012 161.284 101.24 161.27 101.417 161.241C101.595 161.206 101.737 161.178 101.843 161.156L102.355 163.415C102.184 163.479 101.946 163.543 101.641 163.607C101.335 163.678 100.948 163.713 100.48 163.713C99.7694 163.713 99.0733 163.56 98.3915 163.255C97.7168 162.95 97.1557 162.484 96.7083 161.859C96.2679 161.234 96.0478 160.446 96.0478 159.494V143.216ZM112.31 163.841C110.833 163.841 109.537 163.489 108.422 162.786C107.314 162.083 106.447 161.099 105.822 159.835C105.204 158.571 104.895 157.094 104.895 155.403C104.895 153.699 105.204 152.211 105.822 150.94C106.447 149.668 107.314 148.681 108.422 147.978C109.537 147.275 110.833 146.923 112.31 146.923C113.787 146.923 115.08 147.275 116.188 147.978C117.303 148.681 118.17 149.668 118.787 150.94C119.412 152.211 119.725 153.699 119.725 155.403C119.725 157.094 119.412 158.571 118.787 159.835C118.17 161.099 117.303 162.083 116.188 162.786C115.08 163.489 113.787 163.841 112.31 163.841ZM112.31 161.582C113.432 161.582 114.356 161.295 115.08 160.719C115.805 160.144 116.341 159.388 116.689 158.45C117.037 157.513 117.211 156.497 117.211 155.403C117.211 154.31 117.037 153.29 116.689 152.346C116.341 151.401 115.805 150.638 115.08 150.055C114.356 149.473 113.432 149.182 112.31 149.182C111.188 149.182 110.265 149.473 109.54 150.055C108.816 150.638 108.28 151.401 107.932 152.346C107.584 153.29 107.41 154.31 107.41 155.403C107.41 156.497 107.584 157.513 107.932 158.45C108.28 159.388 108.816 160.144 109.54 160.719C110.265 161.295 111.188 161.582 112.31 161.582ZM143.591 150.801L141.333 151.44C141.191 151.064 140.981 150.698 140.704 150.343C140.434 149.981 140.065 149.683 139.596 149.448C139.127 149.214 138.527 149.097 137.796 149.097C136.794 149.097 135.96 149.327 135.292 149.789C134.632 150.244 134.301 150.822 134.301 151.526C134.301 152.151 134.529 152.644 134.983 153.006C135.438 153.369 136.148 153.67 137.114 153.912L139.543 154.509C141.006 154.864 142.096 155.407 142.814 156.138C143.531 156.863 143.89 157.797 143.89 158.94C143.89 159.878 143.62 160.716 143.08 161.455C142.547 162.193 141.801 162.776 140.843 163.202C139.884 163.628 138.769 163.841 137.498 163.841C135.828 163.841 134.447 163.479 133.353 162.754C132.26 162.03 131.567 160.972 131.276 159.58L133.662 158.983C133.89 159.864 134.319 160.524 134.951 160.964C135.591 161.405 136.425 161.625 137.455 161.625C138.627 161.625 139.557 161.376 140.246 160.879C140.942 160.375 141.29 159.771 141.29 159.068C141.29 158.5 141.091 158.024 140.694 157.641C140.296 157.25 139.685 156.959 138.861 156.767L136.134 156.128C134.635 155.773 133.534 155.222 132.831 154.477C132.135 153.724 131.787 152.783 131.787 151.653C131.787 150.73 132.047 149.913 132.565 149.203C133.091 148.493 133.804 147.935 134.706 147.531C135.615 147.126 136.645 146.923 137.796 146.923C139.415 146.923 140.686 147.278 141.61 147.989C142.54 148.699 143.201 149.636 143.591 150.801ZM152.49 163.884C151.453 163.884 150.512 163.688 149.666 163.298C148.821 162.9 148.15 162.328 147.653 161.582C147.156 160.83 146.907 159.92 146.907 158.855C146.907 157.918 147.092 157.158 147.461 156.575C147.83 155.986 148.324 155.524 148.942 155.19C149.56 154.857 150.242 154.608 150.987 154.445C151.74 154.274 152.497 154.139 153.257 154.04C154.251 153.912 155.057 153.816 155.675 153.752C156.3 153.681 156.754 153.564 157.039 153.401C157.33 153.237 157.475 152.953 157.475 152.548V152.463C157.475 151.412 157.188 150.595 156.612 150.013C156.044 149.43 155.181 149.139 154.024 149.139C152.823 149.139 151.882 149.402 151.2 149.928C150.519 150.453 150.039 151.014 149.762 151.611L147.376 150.759C147.802 149.764 148.37 148.99 149.08 148.436C149.798 147.875 150.579 147.484 151.424 147.264C152.276 147.037 153.115 146.923 153.938 146.923C154.464 146.923 155.068 146.987 155.749 147.115C156.438 147.236 157.102 147.488 157.742 147.871C158.388 148.255 158.924 148.834 159.35 149.608C159.776 150.382 159.99 151.419 159.99 152.719V163.5H157.475V161.284H157.347C157.177 161.639 156.893 162.019 156.495 162.424C156.097 162.829 155.568 163.173 154.908 163.457C154.247 163.741 153.441 163.884 152.49 163.884ZM152.873 161.625C153.867 161.625 154.705 161.43 155.387 161.039C156.076 160.648 156.595 160.144 156.943 159.526C157.298 158.908 157.475 158.259 157.475 157.577V155.276C157.369 155.403 157.134 155.521 156.772 155.627C156.417 155.727 156.005 155.815 155.536 155.893C155.075 155.964 154.624 156.028 154.183 156.085C153.75 156.135 153.399 156.178 153.129 156.213C152.475 156.298 151.865 156.437 151.296 156.629C150.735 156.813 150.281 157.094 149.933 157.47C149.592 157.839 149.421 158.344 149.421 158.983C149.421 159.857 149.744 160.517 150.391 160.964C151.044 161.405 151.872 161.625 152.873 161.625ZM165.612 169.636C165.186 169.636 164.806 169.601 164.472 169.53C164.138 169.466 163.907 169.402 163.779 169.338L164.419 167.122C165.029 167.278 165.569 167.335 166.038 167.293C166.507 167.25 166.922 167.04 167.284 166.664C167.654 166.295 167.991 165.695 168.297 164.864L168.765 163.585L162.714 147.136H165.441L169.958 160.176H170.129L174.646 147.136H177.373L170.427 165.886C170.115 166.732 169.728 167.431 169.266 167.985C168.804 168.546 168.268 168.962 167.657 169.232C167.054 169.501 166.372 169.636 165.612 169.636ZM196.246 147.136V149.267H187.766V147.136H196.246ZM190.237 143.216H192.751V158.812C192.751 159.523 192.854 160.055 193.06 160.411C193.273 160.759 193.543 160.993 193.87 161.114C194.204 161.227 194.555 161.284 194.925 161.284C195.202 161.284 195.429 161.27 195.607 161.241C195.784 161.206 195.926 161.178 196.033 161.156L196.544 163.415C196.374 163.479 196.136 163.543 195.83 163.607C195.525 163.678 195.138 163.713 194.669 163.713C193.959 163.713 193.263 163.56 192.581 163.255C191.906 162.95 191.345 162.484 190.898 161.859C190.457 161.234 190.237 160.446 190.237 159.494V143.216ZM202.893 153.656V163.5H200.379V141.682H202.893V149.693H203.107C203.49 148.848 204.065 148.177 204.832 147.68C205.607 147.175 206.636 146.923 207.922 146.923C209.037 146.923 210.013 147.147 210.852 147.594C211.69 148.035 212.339 148.713 212.801 149.629C213.27 150.538 213.504 151.696 213.504 153.102V163.5H210.99V153.273C210.99 151.973 210.653 150.968 209.978 150.258C209.31 149.54 208.384 149.182 207.197 149.182C206.374 149.182 205.635 149.356 204.982 149.704C204.335 150.052 203.824 150.56 203.447 151.227C203.078 151.895 202.893 152.705 202.893 153.656ZM222.919 163.884C221.882 163.884 220.941 163.688 220.096 163.298C219.251 162.9 218.58 162.328 218.083 161.582C217.585 160.83 217.337 159.92 217.337 158.855C217.337 157.918 217.521 157.158 217.891 156.575C218.26 155.986 218.754 155.524 219.372 155.19C219.99 154.857 220.671 154.608 221.417 154.445C222.17 154.274 222.926 154.139 223.686 154.04C224.681 153.912 225.487 153.816 226.105 153.752C226.73 153.681 227.184 153.564 227.468 153.401C227.759 153.237 227.905 152.953 227.905 152.548V152.463C227.905 151.412 227.617 150.595 227.042 150.013C226.474 149.43 225.611 149.139 224.453 149.139C223.253 149.139 222.312 149.402 221.63 149.928C220.948 150.453 220.469 151.014 220.192 151.611L217.806 150.759C218.232 149.764 218.8 148.99 219.51 148.436C220.227 147.875 221.009 147.484 221.854 147.264C222.706 147.037 223.544 146.923 224.368 146.923C224.894 146.923 225.497 146.987 226.179 147.115C226.868 147.236 227.532 147.488 228.171 147.871C228.818 148.255 229.354 148.834 229.78 149.608C230.206 150.382 230.419 151.419 230.419 152.719V163.5H227.905V161.284H227.777C227.607 161.639 227.323 162.019 226.925 162.424C226.527 162.829 225.998 163.173 225.338 163.457C224.677 163.741 223.871 163.884 222.919 163.884ZM223.303 161.625C224.297 161.625 225.135 161.43 225.817 161.039C226.506 160.648 227.024 160.144 227.372 159.526C227.727 158.908 227.905 158.259 227.905 157.577V155.276C227.798 155.403 227.564 155.521 227.202 155.627C226.847 155.727 226.435 155.815 225.966 155.893C225.504 155.964 225.053 156.028 224.613 156.085C224.18 156.135 223.828 156.178 223.558 156.213C222.905 156.298 222.294 156.437 221.726 156.629C221.165 156.813 220.71 157.094 220.362 157.47C220.021 157.839 219.851 158.344 219.851 158.983C219.851 159.857 220.174 160.517 220.82 160.964C221.474 161.405 222.301 161.625 223.303 161.625ZM242.125 147.136V149.267H233.645V147.136H242.125ZM236.116 143.216H238.63V158.812C238.63 159.523 238.733 160.055 238.939 160.411C239.152 160.759 239.422 160.993 239.749 161.114C240.083 161.227 240.434 161.284 240.804 161.284C241.081 161.284 241.308 161.27 241.485 161.241C241.663 161.206 241.805 161.178 241.912 161.156L242.423 163.415C242.252 163.479 242.015 163.543 241.709 163.607C241.404 163.678 241.017 163.713 240.548 163.713C239.838 163.713 239.142 163.56 238.46 163.255C237.785 162.95 237.224 162.484 236.777 161.859C236.336 161.234 236.116 160.446 236.116 159.494V143.216ZM259.159 163.884C258.123 163.884 257.181 163.688 256.336 163.298C255.491 162.9 254.82 162.328 254.323 161.582C253.826 160.83 253.577 159.92 253.577 158.855C253.577 157.918 253.762 157.158 254.131 156.575C254.5 155.986 254.994 155.524 255.612 155.19C256.23 154.857 256.912 154.608 257.657 154.445C258.41 154.274 259.167 154.139 259.926 154.04C260.921 153.912 261.727 153.816 262.345 153.752C262.97 153.681 263.424 153.564 263.708 153.401C264 153.237 264.145 152.953 264.145 152.548V152.463C264.145 151.412 263.858 150.595 263.282 150.013C262.714 149.43 261.851 149.139 260.694 149.139C259.493 149.139 258.552 149.402 257.87 149.928C257.189 150.453 256.709 151.014 256.432 151.611L254.046 150.759C254.472 149.764 255.04 148.99 255.75 148.436C256.468 147.875 257.249 147.484 258.094 147.264C258.946 147.037 259.784 146.923 260.608 146.923C261.134 146.923 261.738 146.987 262.419 147.115C263.108 147.236 263.772 147.488 264.412 147.871C265.058 148.255 265.594 148.834 266.02 149.608C266.446 150.382 266.659 151.419 266.659 152.719V163.5H264.145V161.284H264.017C263.847 161.639 263.563 162.019 263.165 162.424C262.767 162.829 262.238 163.173 261.578 163.457C260.917 163.741 260.111 163.884 259.159 163.884ZM259.543 161.625C260.537 161.625 261.375 161.43 262.057 161.039C262.746 160.648 263.265 160.144 263.613 159.526C263.968 158.908 264.145 158.259 264.145 157.577V155.276C264.039 155.403 263.804 155.521 263.442 155.627C263.087 155.727 262.675 155.815 262.206 155.893C261.745 155.964 261.294 156.028 260.853 156.085C260.42 156.135 260.069 156.178 259.799 156.213C259.145 156.298 258.534 156.437 257.966 156.629C257.405 156.813 256.951 157.094 256.603 157.47C256.262 157.839 256.091 158.344 256.091 158.983C256.091 159.857 256.414 160.517 257.061 160.964C257.714 161.405 258.542 161.625 259.543 161.625ZM273.763 141.682V163.5H271.248V141.682H273.763ZM280.882 141.682V163.5H278.368V141.682H280.882ZM296.438 153.656V163.5H293.924V141.682H296.438V149.693H296.651C297.035 148.848 297.61 148.177 298.377 147.68C299.151 147.175 300.181 146.923 301.467 146.923C302.582 146.923 303.558 147.147 304.396 147.594C305.235 148.035 305.884 148.713 306.346 149.629C306.815 150.538 307.049 151.696 307.049 153.102V163.5H304.535V153.273C304.535 151.973 304.198 150.968 303.523 150.258C302.855 149.54 301.928 149.182 300.742 149.182C299.919 149.182 299.18 149.356 298.526 149.704C297.88 150.052 297.369 150.56 296.992 151.227C296.623 151.895 296.438 152.705 296.438 153.656ZM316.464 163.884C315.427 163.884 314.486 163.688 313.641 163.298C312.796 162.9 312.125 162.328 311.627 161.582C311.13 160.83 310.882 159.92 310.882 158.855C310.882 157.918 311.066 157.158 311.436 156.575C311.805 155.986 312.299 155.524 312.917 155.19C313.534 154.857 314.216 154.608 314.962 154.445C315.715 154.274 316.471 154.139 317.231 154.04C318.225 153.912 319.032 153.816 319.65 153.752C320.275 153.681 320.729 153.564 321.013 153.401C321.304 153.237 321.45 152.953 321.45 152.548V152.463C321.45 151.412 321.162 150.595 320.587 150.013C320.019 149.43 319.156 149.139 317.998 149.139C316.798 149.139 315.857 149.402 315.175 149.928C314.493 150.453 314.014 151.014 313.737 151.611L311.35 150.759C311.777 149.764 312.345 148.99 313.055 148.436C313.772 147.875 314.554 147.484 315.399 147.264C316.251 147.037 317.089 146.923 317.913 146.923C318.439 146.923 319.042 146.987 319.724 147.115C320.413 147.236 321.077 147.488 321.716 147.871C322.363 148.255 322.899 148.834 323.325 149.608C323.751 150.382 323.964 151.419 323.964 152.719V163.5H321.45V161.284H321.322C321.152 161.639 320.868 162.019 320.47 162.424C320.072 162.829 319.543 163.173 318.882 163.457C318.222 163.741 317.416 163.884 316.464 163.884ZM316.848 161.625C317.842 161.625 318.68 161.43 319.362 161.039C320.051 160.648 320.569 160.144 320.917 159.526C321.272 158.908 321.45 158.259 321.45 157.577V155.276C321.343 155.403 321.109 155.521 320.747 155.627C320.392 155.727 319.98 155.815 319.511 155.893C319.049 155.964 318.598 156.028 318.158 156.085C317.725 156.135 317.373 156.178 317.103 156.213C316.45 156.298 315.839 156.437 315.271 156.629C314.71 156.813 314.255 157.094 313.907 157.47C313.566 157.839 313.396 158.344 313.396 158.983C313.396 159.857 313.719 160.517 314.365 160.964C315.019 161.405 315.846 161.625 316.848 161.625ZM329.586 169.636C329.16 169.636 328.78 169.601 328.447 169.53C328.113 169.466 327.882 169.402 327.754 169.338L328.393 167.122C329.004 167.278 329.544 167.335 330.013 167.293C330.481 167.25 330.897 167.04 331.259 166.664C331.628 166.295 331.966 165.695 332.271 164.864L332.74 163.585L326.689 147.136H329.416L333.933 160.176H334.104L338.621 147.136H341.348L334.402 165.886C334.089 166.732 333.702 167.431 333.241 167.985C332.779 168.546 332.243 168.962 331.632 169.232C331.028 169.501 330.346 169.636 329.586 169.636ZM356.257 150.801L353.999 151.44C353.857 151.064 353.647 150.698 353.37 150.343C353.1 149.981 352.731 149.683 352.262 149.448C351.794 149.214 351.193 149.097 350.462 149.097C349.46 149.097 348.626 149.327 347.958 149.789C347.298 150.244 346.968 150.822 346.968 151.526C346.968 152.151 347.195 152.644 347.649 153.006C348.104 153.369 348.814 153.67 349.78 153.912L352.209 154.509C353.672 154.864 354.762 155.407 355.48 156.138C356.197 156.863 356.556 157.797 356.556 158.94C356.556 159.878 356.286 160.716 355.746 161.455C355.213 162.193 354.468 162.776 353.509 163.202C352.55 163.628 351.435 163.841 350.164 163.841C348.494 163.841 347.113 163.479 346.019 162.754C344.926 162.03 344.233 160.972 343.942 159.58L346.328 158.983C346.556 159.864 346.985 160.524 347.617 160.964C348.257 161.405 349.091 161.625 350.121 161.625C351.293 161.625 352.223 161.376 352.912 160.879C353.608 160.375 353.956 159.771 353.956 159.068C353.956 158.5 353.757 158.024 353.36 157.641C352.962 157.25 352.351 156.959 351.527 156.767L348.8 156.128C347.301 155.773 346.2 155.222 345.497 154.477C344.801 153.724 344.453 152.783 344.453 151.653C344.453 150.73 344.713 149.913 345.231 149.203C345.757 148.493 346.47 147.935 347.372 147.531C348.281 147.126 349.311 146.923 350.462 146.923C352.081 146.923 353.352 147.278 354.276 147.989C355.206 148.699 355.867 149.636 356.257 150.801ZM367.457 147.136V149.267H358.977V147.136H367.457ZM361.448 143.216H363.962V158.812C363.962 159.523 364.065 160.055 364.271 160.411C364.484 160.759 364.754 160.993 365.081 161.114C365.415 161.227 365.766 161.284 366.136 161.284C366.413 161.284 366.64 161.27 366.817 161.241C366.995 161.206 367.137 161.178 367.244 161.156L367.755 163.415C367.585 163.479 367.347 163.543 367.041 163.607C366.736 163.678 366.349 163.713 365.88 163.713C365.17 163.713 364.474 163.56 363.792 163.255C363.117 162.95 362.556 162.484 362.109 161.859C361.668 161.234 361.448 160.446 361.448 159.494V143.216ZM376.054 163.884C375.017 163.884 374.076 163.688 373.231 163.298C372.386 162.9 371.714 162.328 371.217 161.582C370.72 160.83 370.472 159.92 370.472 158.855C370.472 157.918 370.656 157.158 371.026 156.575C371.395 155.986 371.888 155.524 372.506 155.19C373.124 154.857 373.806 154.608 374.552 154.445C375.305 154.274 376.061 154.139 376.821 154.04C377.815 153.912 378.621 153.816 379.239 153.752C379.864 153.681 380.319 153.564 380.603 153.401C380.894 153.237 381.04 152.953 381.04 152.548V152.463C381.04 151.412 380.752 150.595 380.177 150.013C379.609 149.43 378.746 149.139 377.588 149.139C376.388 149.139 375.447 149.402 374.765 149.928C374.083 150.453 373.604 151.014 373.327 151.611L370.94 150.759C371.366 149.764 371.935 148.99 372.645 148.436C373.362 147.875 374.143 147.484 374.989 147.264C375.841 147.037 376.679 146.923 377.503 146.923C378.028 146.923 378.632 146.987 379.314 147.115C380.003 147.236 380.667 147.488 381.306 147.871C381.952 148.255 382.489 148.834 382.915 149.608C383.341 150.382 383.554 151.419 383.554 152.719V163.5H381.04V161.284H380.912C380.741 161.639 380.457 162.019 380.06 162.424C379.662 162.829 379.133 163.173 378.472 163.457C377.812 163.741 377.006 163.884 376.054 163.884ZM376.438 161.625C377.432 161.625 378.27 161.43 378.952 161.039C379.641 160.648 380.159 160.144 380.507 159.526C380.862 158.908 381.04 158.259 381.04 157.577V155.276C380.933 155.403 380.699 155.521 380.337 155.627C379.982 155.727 379.57 155.815 379.101 155.893C378.639 155.964 378.188 156.028 377.748 156.085C377.315 156.135 376.963 156.178 376.693 156.213C376.04 156.298 375.429 156.437 374.861 156.629C374.3 156.813 373.845 157.094 373.497 157.47C373.156 157.839 372.986 158.344 372.986 158.983C372.986 159.857 373.309 160.517 373.955 160.964C374.609 161.405 375.436 161.625 376.438 161.625ZM394.791 163.841C393.257 163.841 391.936 163.479 390.828 162.754C389.72 162.03 388.867 161.032 388.271 159.761C387.674 158.489 387.376 157.037 387.376 155.403C387.376 153.741 387.681 152.275 388.292 151.004C388.91 149.725 389.769 148.727 390.87 148.01C391.978 147.286 393.271 146.923 394.748 146.923C395.899 146.923 396.936 147.136 397.859 147.562C398.782 147.989 399.539 148.585 400.128 149.352C400.718 150.119 401.083 151.014 401.225 152.037H398.711C398.519 151.291 398.093 150.631 397.433 150.055C396.779 149.473 395.899 149.182 394.791 149.182C393.811 149.182 392.951 149.437 392.213 149.949C391.481 150.453 390.909 151.167 390.497 152.09C390.093 153.006 389.89 154.082 389.89 155.318C389.89 156.582 390.089 157.683 390.487 158.621C390.892 159.558 391.46 160.286 392.191 160.805C392.93 161.323 393.796 161.582 394.791 161.582C395.444 161.582 396.037 161.469 396.57 161.241C397.102 161.014 397.553 160.688 397.923 160.261C398.292 159.835 398.555 159.324 398.711 158.727H401.225C401.083 159.693 400.732 160.563 400.171 161.337C399.617 162.104 398.882 162.715 397.965 163.17C397.056 163.617 395.998 163.841 394.791 163.841ZM407.244 157.534L407.202 154.423H407.713L414.872 147.136H417.983L410.355 154.849H410.142L407.244 157.534ZM404.901 163.5V141.682H407.415V163.5H404.901ZM415.298 163.5L408.906 155.403L410.696 153.656L418.494 163.5H415.298ZM432.81 150.801L430.551 151.44C430.409 151.064 430.2 150.698 429.923 150.343C429.653 149.981 429.284 149.683 428.815 149.448C428.346 149.214 427.746 149.097 427.015 149.097C426.013 149.097 425.179 149.327 424.511 149.789C423.85 150.244 423.52 150.822 423.52 151.526C423.52 152.151 423.748 152.644 424.202 153.006C424.657 153.369 425.367 153.67 426.333 153.912L428.762 154.509C430.225 154.864 431.315 155.407 432.032 156.138C432.75 156.863 433.108 157.797 433.108 158.94C433.108 159.878 432.838 160.716 432.299 161.455C431.766 162.193 431.02 162.776 430.061 163.202C429.103 163.628 427.988 163.841 426.716 163.841C425.047 163.841 423.666 163.479 422.572 162.754C421.478 162.03 420.786 160.972 420.495 159.58L422.881 158.983C423.108 159.864 423.538 160.524 424.17 160.964C424.809 161.405 425.644 161.625 426.674 161.625C427.846 161.625 428.776 161.376 429.465 160.879C430.161 160.375 430.509 159.771 430.509 159.068C430.509 158.5 430.31 158.024 429.912 157.641C429.515 157.25 428.904 156.959 428.08 156.767L425.353 156.128C423.854 155.773 422.753 155.222 422.05 154.477C421.354 153.724 421.006 152.783 421.006 151.653C421.006 150.73 421.265 149.913 421.784 149.203C422.309 148.493 423.023 147.935 423.925 147.531C424.834 147.126 425.864 146.923 427.015 146.923C428.634 146.923 429.905 147.278 430.828 147.989C431.759 148.699 432.419 149.636 432.81 150.801ZM155.449 199.884C154.412 199.884 153.471 199.688 152.625 199.298C151.78 198.9 151.109 198.328 150.612 197.582C150.115 196.83 149.866 195.92 149.866 194.855C149.866 193.918 150.051 193.158 150.42 192.575C150.789 191.986 151.283 191.524 151.901 191.19C152.519 190.857 153.201 190.608 153.946 190.445C154.699 190.274 155.456 190.139 156.216 190.04C157.21 189.912 158.016 189.816 158.634 189.752C159.259 189.681 159.713 189.564 159.998 189.401C160.289 189.237 160.434 188.953 160.434 188.548V188.463C160.434 187.412 160.147 186.595 159.571 186.013C159.003 185.43 158.14 185.139 156.983 185.139C155.782 185.139 154.841 185.402 154.159 185.928C153.478 186.453 152.998 187.014 152.721 187.611L150.335 186.759C150.761 185.764 151.329 184.99 152.039 184.436C152.757 183.875 153.538 183.484 154.383 183.264C155.235 183.037 156.074 182.923 156.897 182.923C157.423 182.923 158.027 182.987 158.708 183.115C159.397 183.236 160.061 183.488 160.701 183.871C161.347 184.255 161.883 184.834 162.309 185.608C162.735 186.382 162.949 187.419 162.949 188.719V199.5H160.434V197.284H160.306C160.136 197.639 159.852 198.019 159.454 198.424C159.056 198.829 158.527 199.173 157.867 199.457C157.206 199.741 156.4 199.884 155.449 199.884ZM155.832 197.625C156.826 197.625 157.664 197.43 158.346 197.039C159.035 196.648 159.554 196.144 159.902 195.526C160.257 194.908 160.434 194.259 160.434 193.577V191.276C160.328 191.403 160.093 191.521 159.731 191.627C159.376 191.727 158.964 191.815 158.495 191.893C158.034 191.964 157.583 192.028 157.142 192.085C156.709 192.135 156.358 192.178 156.088 192.213C155.434 192.298 154.824 192.437 154.255 192.629C153.694 192.813 153.24 193.094 152.892 193.47C152.551 193.839 152.38 194.344 152.38 194.983C152.38 195.857 152.703 196.517 153.35 196.964C154.003 197.405 154.831 197.625 155.832 197.625ZM167.537 199.5V183.136H169.966V185.608H170.137C170.435 184.798 170.975 184.141 171.756 183.637C172.537 183.133 173.418 182.881 174.398 182.881C174.583 182.881 174.814 182.884 175.091 182.891C175.368 182.898 175.577 182.909 175.719 182.923V185.48C175.634 185.459 175.439 185.427 175.133 185.384C174.835 185.335 174.519 185.31 174.185 185.31C173.39 185.31 172.68 185.477 172.055 185.81C171.437 186.137 170.947 186.592 170.584 187.174C170.229 187.749 170.052 188.406 170.052 189.145V199.5H167.537ZM185.062 199.841C183.486 199.841 182.126 199.493 180.982 198.797C179.846 198.094 178.969 197.114 178.351 195.857C177.74 194.592 177.434 193.122 177.434 191.446C177.434 189.77 177.74 188.293 178.351 187.014C178.969 185.729 179.828 184.727 180.929 184.01C182.037 183.286 183.329 182.923 184.807 182.923C185.659 182.923 186.501 183.065 187.331 183.349C188.162 183.634 188.919 184.095 189.601 184.734C190.282 185.366 190.826 186.205 191.231 187.249C191.635 188.293 191.838 189.578 191.838 191.105V192.17H179.224V189.997H189.281C189.281 189.074 189.096 188.25 188.727 187.526C188.365 186.801 187.846 186.229 187.172 185.81C186.504 185.391 185.716 185.182 184.807 185.182C183.805 185.182 182.939 185.43 182.207 185.928C181.483 186.418 180.925 187.057 180.535 187.845C180.144 188.634 179.949 189.479 179.949 190.381V191.83C179.949 193.065 180.162 194.113 180.588 194.972C181.021 195.825 181.621 196.474 182.388 196.922C183.155 197.362 184.047 197.582 185.062 197.582C185.723 197.582 186.319 197.49 186.852 197.305C187.392 197.114 187.857 196.83 188.248 196.453C188.638 196.07 188.94 195.594 189.153 195.026L191.582 195.707C191.327 196.531 190.897 197.256 190.293 197.881C189.689 198.499 188.944 198.982 188.056 199.33C187.168 199.67 186.17 199.841 185.062 199.841ZM206.614 189.656V199.5H204.1V183.136H206.529V185.693H206.742C207.126 184.862 207.708 184.195 208.489 183.69C209.27 183.179 210.279 182.923 211.515 182.923C212.623 182.923 213.592 183.151 214.423 183.605C215.254 184.053 215.9 184.734 216.362 185.651C216.824 186.56 217.055 187.71 217.055 189.102V199.5H214.54V189.273C214.54 187.987 214.206 186.986 213.539 186.268C212.871 185.544 211.955 185.182 210.79 185.182C209.988 185.182 209.27 185.356 208.638 185.704C208.013 186.052 207.52 186.56 207.157 187.227C206.795 187.895 206.614 188.705 206.614 189.656ZM228.51 199.841C226.933 199.841 225.573 199.493 224.429 198.797C223.293 198.094 222.416 197.114 221.798 195.857C221.187 194.592 220.882 193.122 220.882 191.446C220.882 189.77 221.187 188.293 221.798 187.014C222.416 185.729 223.275 184.727 224.376 184.01C225.484 183.286 226.777 182.923 228.254 182.923C229.106 182.923 229.948 183.065 230.779 183.349C231.61 183.634 232.366 184.095 233.048 184.734C233.73 185.366 234.273 186.205 234.678 187.249C235.083 188.293 235.285 189.578 235.285 191.105V192.17H222.672V189.997H232.728C232.728 189.074 232.544 188.25 232.174 187.526C231.812 186.801 231.294 186.229 230.619 185.81C229.951 185.391 229.163 185.182 228.254 185.182C227.252 185.182 226.386 185.43 225.654 185.928C224.93 186.418 224.373 187.057 223.982 187.845C223.591 188.634 223.396 189.479 223.396 190.381V191.83C223.396 193.065 223.609 194.113 224.035 194.972C224.468 195.825 225.069 196.474 225.836 196.922C226.603 197.362 227.494 197.582 228.51 197.582C229.17 197.582 229.767 197.49 230.299 197.305C230.839 197.114 231.304 196.83 231.695 196.453C232.086 196.07 232.387 195.594 232.6 195.026L235.029 195.707C234.774 196.531 234.344 197.256 233.74 197.881C233.137 198.499 232.391 198.982 231.503 199.33C230.615 199.67 229.618 199.841 228.51 199.841ZM245.971 199.841C244.394 199.841 243.034 199.493 241.89 198.797C240.754 198.094 239.877 197.114 239.259 195.857C238.648 194.592 238.343 193.122 238.343 191.446C238.343 189.77 238.648 188.293 239.259 187.014C239.877 185.729 240.736 184.727 241.837 184.01C242.945 183.286 244.238 182.923 245.715 182.923C246.567 182.923 247.409 183.065 248.24 183.349C249.071 183.634 249.827 184.095 250.509 184.734C251.191 185.366 251.734 186.205 252.139 187.249C252.544 188.293 252.746 189.578 252.746 191.105V192.17H240.132V189.997H250.189C250.189 189.074 250.005 188.25 249.635 187.526C249.273 186.801 248.755 186.229 248.08 185.81C247.412 185.391 246.624 185.182 245.715 185.182C244.713 185.182 243.847 185.43 243.115 185.928C242.391 186.418 241.833 187.057 241.443 187.845C241.052 188.634 240.857 189.479 240.857 190.381V191.83C240.857 193.065 241.07 194.113 241.496 194.972C241.929 195.825 242.529 196.474 243.297 196.922C244.064 197.362 244.955 197.582 245.971 197.582C246.631 197.582 247.228 197.49 247.76 197.305C248.3 197.114 248.765 196.83 249.156 196.453C249.547 196.07 249.848 195.594 250.061 195.026L252.49 195.707C252.235 196.531 251.805 197.256 251.201 197.881C250.598 198.499 249.852 198.982 248.964 199.33C248.076 199.67 247.078 199.841 245.971 199.841ZM262.75 199.841C261.386 199.841 260.182 199.496 259.138 198.808C258.094 198.112 257.277 197.131 256.688 195.867C256.098 194.596 255.804 193.094 255.804 191.361C255.804 189.642 256.098 188.151 256.688 186.886C257.277 185.622 258.098 184.646 259.149 183.957C260.2 183.268 261.414 182.923 262.792 182.923C263.858 182.923 264.699 183.101 265.317 183.456C265.942 183.804 266.418 184.202 266.745 184.649C267.078 185.089 267.338 185.452 267.522 185.736H267.735V177.682H270.25V199.5H267.821V196.986H267.522C267.338 197.284 267.075 197.661 266.734 198.115C266.393 198.562 265.907 198.964 265.275 199.319C264.642 199.667 263.801 199.841 262.75 199.841ZM263.091 197.582C264.099 197.582 264.951 197.32 265.647 196.794C266.343 196.261 266.873 195.526 267.235 194.589C267.597 193.644 267.778 192.554 267.778 191.318C267.778 190.097 267.6 189.028 267.245 188.112C266.89 187.188 266.365 186.471 265.669 185.96C264.973 185.441 264.113 185.182 263.091 185.182C262.025 185.182 261.137 185.455 260.427 186.002C259.724 186.542 259.195 187.277 258.84 188.207C258.492 189.131 258.318 190.168 258.318 191.318C258.318 192.483 258.495 193.541 258.85 194.493C259.213 195.437 259.745 196.19 260.449 196.751C261.159 197.305 262.039 197.582 263.091 197.582ZM277.718 177.682V199.5H275.203V177.682H277.718ZM289.183 199.841C287.607 199.841 286.247 199.493 285.103 198.797C283.967 198.094 283.09 197.114 282.472 195.857C281.861 194.592 281.556 193.122 281.556 191.446C281.556 189.77 281.861 188.293 282.472 187.014C283.09 185.729 283.949 184.727 285.05 184.01C286.158 183.286 287.45 182.923 288.928 182.923C289.78 182.923 290.622 183.065 291.453 183.349C292.284 183.634 293.04 184.095 293.722 184.734C294.404 185.366 294.947 186.205 295.352 187.249C295.757 188.293 295.959 189.578 295.959 191.105V192.17H283.345V189.997H293.402C293.402 189.074 293.218 188.25 292.848 187.526C292.486 186.801 291.968 186.229 291.293 185.81C290.625 185.391 289.837 185.182 288.928 185.182C287.926 185.182 287.06 185.43 286.328 185.928C285.604 186.418 285.046 187.057 284.656 187.845C284.265 188.634 284.07 189.479 284.07 190.381V191.83C284.07 193.065 284.283 194.113 284.709 194.972C285.142 195.825 285.742 196.474 286.509 196.922C287.276 197.362 288.168 197.582 289.183 197.582C289.844 197.582 290.441 197.49 290.973 197.305C291.513 197.114 291.978 196.83 292.369 196.453C292.759 196.07 293.061 195.594 293.274 195.026L295.703 195.707C295.448 196.531 295.018 197.256 294.414 197.881C293.811 198.499 293.065 198.982 292.177 199.33C291.289 199.67 290.291 199.841 289.183 199.841ZM311.374 186.801L309.116 187.44C308.974 187.064 308.764 186.698 308.487 186.343C308.218 185.981 307.848 185.683 307.379 185.448C306.911 185.214 306.311 185.097 305.579 185.097C304.578 185.097 303.743 185.327 303.075 185.789C302.415 186.244 302.085 186.822 302.085 187.526C302.085 188.151 302.312 188.644 302.767 189.006C303.221 189.369 303.931 189.67 304.897 189.912L307.326 190.509C308.789 190.864 309.879 191.407 310.597 192.138C311.314 192.863 311.673 193.797 311.673 194.94C311.673 195.878 311.403 196.716 310.863 197.455C310.33 198.193 309.585 198.776 308.626 199.202C307.667 199.628 306.552 199.841 305.281 199.841C303.612 199.841 302.23 199.479 301.137 198.754C300.043 198.03 299.35 196.972 299.059 195.58L301.445 194.983C301.673 195.864 302.102 196.524 302.735 196.964C303.374 197.405 304.208 197.625 305.238 197.625C306.41 197.625 307.34 197.376 308.029 196.879C308.725 196.375 309.073 195.771 309.073 195.068C309.073 194.5 308.874 194.024 308.477 193.641C308.079 193.25 307.468 192.959 306.644 192.767L303.917 192.128C302.419 191.773 301.318 191.222 300.615 190.477C299.919 189.724 299.57 188.783 299.57 187.653C299.57 186.73 299.83 185.913 300.348 185.203C300.874 184.493 301.588 183.935 302.49 183.531C303.399 183.126 304.428 182.923 305.579 182.923C307.198 182.923 308.47 183.278 309.393 183.989C310.323 184.699 310.984 185.636 311.374 186.801ZM317.29 199.67C316.764 199.67 316.313 199.482 315.937 199.106C315.56 198.729 315.372 198.278 315.372 197.753C315.372 197.227 315.56 196.776 315.937 196.4C316.313 196.023 316.764 195.835 317.29 195.835C317.815 195.835 318.266 196.023 318.643 196.4C319.019 196.776 319.207 197.227 319.207 197.753C319.207 198.101 319.119 198.42 318.941 198.712C318.771 199.003 318.54 199.237 318.249 199.415C317.964 199.585 317.645 199.67 317.29 199.67ZM325.551 199.67C325.026 199.67 324.575 199.482 324.199 199.106C323.822 198.729 323.634 198.278 323.634 197.753C323.634 197.227 323.822 196.776 324.199 196.4C324.575 196.023 325.026 195.835 325.551 195.835C326.077 195.835 326.528 196.023 326.904 196.4C327.281 196.776 327.469 197.227 327.469 197.753C327.469 198.101 327.38 198.42 327.203 198.712C327.032 199.003 326.801 199.237 326.51 199.415C326.226 199.585 325.907 199.67 325.551 199.67ZM333.813 199.67C333.288 199.67 332.837 199.482 332.46 199.106C332.084 198.729 331.896 198.278 331.896 197.753C331.896 197.227 332.084 196.776 332.46 196.4C332.837 196.023 333.288 195.835 333.813 195.835C334.339 195.835 334.79 196.023 335.166 196.4C335.543 196.776 335.731 197.227 335.731 197.753C335.731 198.101 335.642 198.42 335.464 198.712C335.294 199.003 335.063 199.237 334.772 199.415C334.488 199.585 334.168 199.67 333.813 199.67ZM340.759 177.682V179.599C340.759 180.182 340.653 180.803 340.44 181.464C340.234 182.117 339.928 182.753 339.523 183.371C339.126 183.982 338.643 184.514 338.075 184.969L336.711 183.861C337.158 183.222 337.545 182.558 337.872 181.869C338.206 181.173 338.373 180.43 338.373 179.642V177.682H340.759ZM346.214 177.682V179.599C346.214 180.182 346.107 180.803 345.894 181.464C345.688 182.117 345.383 182.753 344.978 183.371C344.58 183.982 344.097 184.514 343.529 184.969L342.165 183.861C342.613 183.222 343 182.558 343.327 181.869C343.661 181.173 343.827 180.43 343.827 179.642V177.682H346.214Z" fill="white"/>
<path d="M8 8V0H0V8H8ZM488 8H496V0H488V8ZM488 251V259H496V251H488ZM8 251H0V259H8V251ZM8 16H488V0H8V16ZM480 8V251H496V8H480ZM488 243H8V259H488V243ZM16 251V8H0V251H16Z" fill="black"/>
</g>
<defs>
<filter id="filter0_d_18_72558" x="0" y="0" width="512" height="271" filterUnits="userSpaceOnUse" color-interpolation-filters="sRGB">
<feFlood flood-opacity="0" result="BackgroundImageFix"/>
<feColorMatrix in="SourceAlpha" type="matrix" values="0 0 0 0 0 0 0 0 0 0 0 0 0 0 0 0 0 0 127 0" result="hardAlpha"/>
<feOffset dx="16" dy="12"/>
<feComposite in2="hardAlpha" operator="out"/>
<feColorMatrix type="matrix" values="0 0 0 0 0 0 0 0 0 0 0 0 0 0 0 0 0 0 1 0"/>
<feBlend mode="normal" in2="BackgroundImageFix" result="effect1_dropShadow_18_72558"/>
<feBlend mode="normal" in="SourceGraphic" in2="effect1_dropShadow_18_72558" result="shape"/>
</filter>
</defs>
</svg>
