<svg width="1770" height="295" viewBox="0 0 1770 295" fill="none" xmlns="http://www.w3.org/2000/svg">
<g clip-path="url(#clip0_18_73312)">
<g clip-path="url(#clip1_18_73312)">
<rect width="698.167" height="701.088" transform="translate(652.995 64.3403)" fill="#FFFF50"/>
<path fill-rule="evenodd" clip-rule="evenodd" d="M1004.71 382.541C1092.86 381.038 1163.85 308.818 1163.85 219.947C1163.85 130.136 1091.34 57.3295 1001.91 57.3295C912.469 57.3295 839.966 130.136 839.966 219.947C839.966 308.354 910.219 380.284 997.723 382.512L886.651 494.048L886.63 494.07C823.353 557.611 823.353 660.632 886.63 724.174C949.907 787.716 1052.5 787.716 1115.78 724.174C1179.05 660.632 1179.05 557.611 1115.78 494.07L1004.71 382.541Z" fill="#7FFF5B"/>
</g>
<rect width="698.167" height="701.088" transform="translate(652.995 -636.748)" fill="#FF5C5C"/>
<g clip-path="url(#clip2_18_73312)">
<rect width="698.167" height="701.088" transform="translate(-45.1719 64.3403)" fill="#FF90FF"/>
<path fill-rule="evenodd" clip-rule="evenodd" d="M50.2727 192.027C50.2169 220.57 59.3715 248.363 76.3638 271.245C83.2673 280.537 86.9962 291.82 86.9962 303.413C86.9962 315.006 83.2673 326.289 76.3638 335.581C57.8528 360.683 48.7282 391.525 50.5911 422.704C52.4541 453.883 65.1843 483.41 86.5515 506.109C91.7481 511.489 94.6549 518.689 94.6549 526.184C94.6549 533.679 91.7481 540.881 86.5515 546.261C72.3064 561.329 61.7847 579.546 55.832 599.445C49.8792 619.343 48.6623 640.367 52.2797 660.824C58.3882 686.669 71.4087 710.35 89.936 729.31C108.463 748.27 131.795 761.79 157.413 768.411C176.929 772.369 197.074 771.941 216.406 767.158C235.738 762.374 253.775 753.353 269.225 740.743C284.675 728.132 297.156 712.245 305.77 694.22C314.383 676.195 318.918 656.478 319.048 636.485V599.124C319.048 592.413 320.366 585.768 322.928 579.57C325.49 573.372 329.246 567.743 333.979 563.005C338.712 558.267 344.328 554.513 350.508 551.959C356.688 549.405 363.309 548.101 369.992 548.121H426.495C453.564 548.3 480.038 540.146 502.353 524.757C524.667 509.369 541.75 487.485 551.303 462.051C560.856 436.617 562.419 408.854 555.782 382.501C549.146 356.148 534.629 332.469 514.184 314.653C512.69 313.207 511.5 311.472 510.688 309.555C509.876 307.637 509.459 305.574 509.459 303.49C509.459 301.407 509.876 299.344 510.688 297.426C511.5 295.508 512.69 293.775 514.184 292.329C534.601 274.488 549.094 250.8 555.715 224.447C562.336 198.094 560.768 170.337 551.222 144.905C541.676 119.472 524.609 97.5821 502.313 82.1734C480.017 66.7647 453.561 58.5755 426.495 58.7058H183.502C166.034 58.665 148.729 62.0821 132.577 68.762C116.425 75.4419 101.742 85.2531 89.3688 97.6353C76.9953 110.017 67.1724 124.727 60.4641 140.924C53.7558 157.12 50.2929 174.486 50.2727 192.027Z" fill="#4D7BFF"/>
</g>
<g clip-path="url(#clip3_18_73312)">
<rect width="698.167" height="701.088" transform="translate(-45.1719 -636.748)" fill="#FFFF50"/>
<path d="M311.351 83.0353C366.3 83.1401 420.569 70.8595 470.147 47.1016C519.725 23.3436 563.343 -11.2841 597.777 -54.2214C607.913 -66.7952 615.479 -81.2476 620.044 -96.7535C624.609 -112.259 626.084 -128.515 624.384 -144.592C622.684 -160.67 617.842 -176.254 610.135 -190.455C602.429 -204.656 592.008 -217.196 579.469 -227.359C566.929 -237.522 552.516 -245.108 537.052 -249.686C521.588 -254.263 505.376 -255.742 489.343 -254.037C473.309 -252.333 457.767 -247.478 443.604 -239.75C429.442 -232.023 416.936 -221.574 406.8 -209C390.913 -189.24 369.318 -174.893 344.978 -167.925C320.637 -160.958 294.743 -161.711 270.847 -170.082C246.95 -178.453 226.222 -194.032 211.503 -214.682C196.785 -235.332 188.799 -260.042 188.639 -285.423C188.479 -310.804 196.154 -335.614 210.611 -356.448C225.068 -377.283 245.599 -393.123 269.388 -401.796C293.177 -410.469 319.06 -411.55 343.486 -404.891C367.912 -398.232 389.686 -384.159 405.821 -364.602C416.031 -351.905 428.654 -341.369 442.959 -333.605C457.264 -325.84 472.964 -321.003 489.149 -319.374C505.334 -317.745 521.68 -319.356 537.238 -324.114C552.797 -328.872 567.258 -336.682 579.781 -347.09C592.304 -357.499 602.64 -370.298 610.189 -384.745C617.738 -399.193 622.35 -415 623.755 -431.249C625.161 -447.498 623.334 -463.865 618.379 -479.4C613.423 -494.935 605.44 -509.328 594.891 -521.744C560.388 -563.618 517.074 -597.32 468.054 -620.434C419.034 -643.549 365.521 -655.504 311.351 -655.443C108.301 -655.443 -56.808 -489.806 -56.808 -286.204C-56.808 -82.602 108.301 83.0353 311.351 83.0353Z" fill="#FF90FF"/>
</g>
<g clip-path="url(#clip4_18_73312)">
<rect width="698.167" height="701.088" transform="translate(1351.16 64.3403)" fill="#FF90FF"/>
<path fill-rule="evenodd" clip-rule="evenodd" d="M1700.92 201.675L1591.03 265.386V392.809L1700.92 456.52L1810.81 392.809V265.386L1700.92 201.675ZM1929.25 196.719L1700.92 64.3403L1472.59 196.719V461.476L1700.92 593.854L1929.25 461.476V196.719Z" fill="#FF5C5C"/>
</g>
<g clip-path="url(#clip5_18_73312)">
<rect width="698.167" height="701.088" transform="translate(1351.16 -636.748)" fill="#4D7BFF"/>
<path d="M1872.26 -636.748H1655.59V-491.698H1479.04V64.3382H1695.71L1695.71 -350.669C1695.71 -388.498 1726.25 -419.166 1763.93 -419.166C1801.6 -419.166 1832.14 -388.498 1832.14 -350.669L1832.14 65.6545H2051.14V-355.724H2000.66V-499.752H1952.51V-572.283H1872.26V-636.748Z" fill="#7FFF5B"/>
</g>
</g>
<defs>
<clipPath id="clip0_18_73312">
<rect width="1770" height="295" fill="white" transform="translate(-0.921875 0.156006)"/>
</clipPath>
<clipPath id="clip1_18_73312">
<rect width="698.167" height="701.088" fill="white" transform="translate(652.995 64.3403)"/>
</clipPath>
<clipPath id="clip2_18_73312">
<rect width="698.167" height="701.088" fill="white" transform="translate(-45.1719 64.3403)"/>
</clipPath>
<clipPath id="clip3_18_73312">
<rect width="698.167" height="701.088" fill="white" transform="translate(-45.1719 -636.748)"/>
</clipPath>
<clipPath id="clip4_18_73312">
<rect width="698.167" height="701.088" fill="white" transform="translate(1351.16 64.3403)"/>
</clipPath>
<clipPath id="clip5_18_73312">
<rect width="698.167" height="701.088" fill="white" transform="translate(1351.16 -636.748)"/>
</clipPath>
</defs>
</svg>
